<svg
  width="148"
  height="23"
  viewBox="0 0 148 23"
  fill="none"
  xmlns="http://www.w3.org/2000/svg"
>
<path
    d="M32.0553 22.6095L28.7412 18.3245C28.6204 18.1685 28.4264 18.1106 28.2435 18.1763C28.0606 18.2422 27.9438 18.4119 27.9438 18.6115V22.3223C27.9438 22.576 27.7426 22.7831 27.4963 22.7831H25.2294C24.9831 22.7831 24.7819 22.576 24.7819 22.3223V6.02969C24.7819 5.77595 24.9831 5.56873 25.2294 5.56873H27.4963C27.7426 5.56873 27.9438 5.77595 27.9438 6.02969V14.0371C27.9438 14.2369 28.0608 14.4069 28.2441 14.4724C28.4272 14.5381 28.6214 14.4798 28.742 14.3232L32.0101 10.0704C32.0978 9.95632 32.2194 9.89559 32.3608 9.89559H35.2665C35.4463 9.89559 35.6001 9.99768 35.6741 10.1665C35.7481 10.3353 35.7215 10.5216 35.6027 10.6607L31.0054 16.0562C30.8555 16.2322 30.8563 16.4921 31.0074 16.6669L35.6356 22.0157C35.7555 22.1542 35.7836 22.3416 35.7098 22.511C35.636 22.6802 35.4817 22.7831 35.3014 22.7831H32.4053C32.2643 22.7831 32.143 22.723 32.0553 22.6095ZM148 16.0603C148 16.3595 147.987 16.6397 147.962 16.9006C147.94 17.1374 147.748 17.3163 147.517 17.3163H139.28C139.14 17.3163 139.019 17.3754 138.931 17.4876C138.844 17.5994 138.812 17.7331 138.842 17.8738C138.981 18.5431 139.271 19.0863 139.712 19.5032C140.268 20.0303 140.954 20.2941 141.767 20.2941C142.852 20.2941 143.648 19.8501 144.155 18.9627C144.237 18.8179 144.377 18.7354 144.541 18.7354H147.047C147.202 18.7354 147.335 18.8092 147.421 18.942C147.506 19.0749 147.52 19.2298 147.459 19.3766C147.066 20.332 146.448 21.1382 145.606 21.7946C144.582 22.5932 143.325 22.9926 141.834 22.9926C140.63 22.9926 139.55 22.7174 138.594 22.1668C137.638 21.6163 136.892 20.8367 136.358 19.8288C135.823 18.8209 135.556 17.6575 135.556 16.3394C135.556 15.0055 135.82 13.8348 136.347 12.8265C136.874 11.8186 137.611 11.0432 138.56 10.5003C139.508 9.95774 140.6 9.68626 141.834 9.68626C143.024 9.68626 144.089 9.94975 145.03 10.4772C145.971 11.0043 146.701 11.7527 147.221 12.722C147.74 13.6914 148 14.8041 148 16.0603ZM144.671 14.5817C144.562 13.9943 144.285 13.5061 143.844 13.1174C143.272 12.6137 142.572 12.3612 141.744 12.3612C140.961 12.3612 140.302 12.6058 139.768 13.0942C139.361 13.4662 139.074 13.9483 138.907 14.5402C138.867 14.684 138.892 14.8259 138.979 14.9456C139.066 15.0654 139.192 15.1297 139.337 15.1297H144.232C144.37 15.1297 144.489 15.072 144.577 14.9623C144.665 14.8526 144.698 14.7214 144.671 14.5817ZM121.961 16.3394C121.961 15.0055 122.224 13.8385 122.751 12.8383C123.278 11.838 124.008 11.0626 124.942 10.512C125.875 9.9615 126.944 9.68626 128.149 9.68626C129.699 9.68626 130.983 10.0854 131.999 10.8842C132.868 11.5665 133.492 12.4846 133.871 13.6369C133.918 13.7819 133.897 13.9288 133.81 14.0534C133.724 14.1778 133.595 14.2456 133.447 14.2456H130.939C130.758 14.2456 130.604 14.1419 130.53 13.9718C130.345 13.5424 130.074 13.1949 129.718 12.9314C129.289 12.6134 128.758 12.4544 128.126 12.4544C127.223 12.4544 126.508 12.7918 125.981 13.4664C125.454 14.141 125.19 15.0987 125.19 16.3394C125.19 17.5647 125.454 18.5145 125.981 19.189C126.508 19.8636 127.223 20.201 128.126 20.201C129.302 20.201 130.103 19.7032 130.529 18.7081C130.602 18.5371 130.757 18.4331 130.938 18.4331H133.44C133.59 18.4331 133.719 18.5017 133.806 18.6278C133.892 18.7538 133.912 18.902 133.862 19.0476C133.482 20.158 132.856 21.0622 131.988 21.7597C130.964 22.5814 129.684 22.9926 128.149 22.9926C126.944 22.9926 125.875 22.7174 124.942 22.1668C124.008 21.6163 123.278 20.8408 122.751 19.8405C122.224 18.8402 121.961 17.673 121.961 16.3394ZM117.567 10.9313C117.818 10.6857 118.098 10.472 118.404 10.2909C118.929 9.9797 119.516 9.79327 120.162 9.73195C120.292 9.71974 120.408 9.75979 120.505 9.85037C120.601 9.94082 120.651 10.0565 120.651 10.191V12.6682C120.651 12.9219 120.45 13.129 120.203 13.129H119.815C118.821 13.129 118.073 13.3695 117.568 13.8503C117.064 14.3309 116.812 15.1683 116.812 16.3626V22.3223C116.812 22.576 116.61 22.7831 116.364 22.7831H114.097C113.851 22.7831 113.65 22.576 113.65 22.3223V10.3566C113.65 10.1028 113.851 9.89559 114.097 9.89559H116.364C116.61 9.89559 116.812 10.1028 116.812 10.3566V10.5964C116.812 10.7845 116.914 10.9454 117.082 11.02C117.25 11.0944 117.434 11.0607 117.567 10.9313ZM111.346 16.0603C111.346 16.3595 111.334 16.6397 111.309 16.9006C111.286 17.1374 111.095 17.3163 110.864 17.3163H102.626C102.486 17.3163 102.366 17.3754 102.278 17.4876C102.19 17.5994 102.159 17.7331 102.188 17.8738C102.327 18.5431 102.617 19.0863 103.058 19.5032C103.615 20.0303 104.3 20.2941 105.113 20.2941C106.199 20.2941 106.994 19.8501 107.501 18.9627C107.584 18.8179 107.724 18.7354 107.887 18.7354H110.394C110.549 18.7354 110.682 18.8092 110.767 18.942C110.852 19.0749 110.866 19.2298 110.806 19.3766C110.412 20.332 109.794 21.1382 108.952 21.7946C107.929 22.5932 106.671 22.9926 105.181 22.9926C103.976 22.9926 102.896 22.7174 101.94 22.1668C100.984 21.6163 100.239 20.8367 99.7043 19.8288C99.1699 18.8209 98.9027 17.6575 98.9027 16.3394C98.9027 15.0055 99.1659 13.8348 99.693 12.8265C100.22 11.8186 100.958 11.0432 101.906 10.5003C102.855 9.95774 103.946 9.68626 105.181 9.68626C106.37 9.68626 107.436 9.94975 108.377 10.4772C109.318 11.0043 110.048 11.7527 110.567 12.722C111.087 13.6914 111.346 14.8041 111.346 16.0603ZM108.018 14.5817C107.908 13.9943 107.632 13.5061 107.191 13.1174C106.619 12.6137 105.919 12.3612 105.09 12.3612C104.308 12.3612 103.649 12.6058 103.114 13.0942C102.708 13.4662 102.42 13.9483 102.254 14.5402C102.213 14.684 102.238 14.8259 102.326 14.9456C102.413 15.0654 102.538 15.1297 102.683 15.1297H107.578C107.716 15.1297 107.835 15.072 107.923 14.9623C108.011 14.8526 108.044 14.7214 108.018 14.5817ZM91.5854 9.7094C93.1211 9.7094 94.3595 10.194 95.3005 11.1632C96.2415 12.1326 96.7119 13.4858 96.7119 15.2228V22.3223C96.7119 22.576 96.5109 22.7831 96.2644 22.7831H93.9977C93.7512 22.7831 93.5502 22.576 93.5502 22.3223V15.6647C93.5502 14.6568 93.3017 13.8852 92.805 13.3501C92.3081 12.8151 91.6306 12.5475 90.7724 12.5475C89.9141 12.5475 89.2329 12.8151 88.7286 13.3501C88.224 13.8852 87.9718 14.6568 87.9718 15.6647V22.3223C87.9718 22.576 87.7708 22.7831 87.5243 22.7831H85.2578C85.0115 22.7831 84.8103 22.576 84.8103 22.3223V15.6647C84.8103 14.6568 84.5618 13.8852 84.0649 13.3501C83.568 12.8151 82.8905 12.5475 82.0323 12.5475C81.1592 12.5475 80.4704 12.8151 79.9658 13.3501C79.4614 13.8852 79.2093 14.6568 79.2093 15.6647V22.3223C79.2093 22.576 79.0082 22.7831 78.7618 22.7831H76.495C76.2486 22.7831 76.0475 22.576 76.0475 22.3223V10.3566C76.0475 10.1028 76.2486 9.89559 76.495 9.89559H79.2093V10.3432C79.2093 10.5235 79.3029 10.6781 79.4602 10.7574C79.6177 10.8365 79.7935 10.8175 79.9317 10.7067C80.1865 10.5022 80.4693 10.3247 80.7789 10.1747C81.4188 9.86482 82.1226 9.7094 82.8905 9.7094C83.8691 9.7094 84.7423 9.92261 85.5102 10.3492C86.0843 10.668 86.5622 11.089 86.9426 11.6118C87.029 11.7304 87.1524 11.795 87.2966 11.7961C87.4406 11.7974 87.565 11.7353 87.6536 11.6182C88.0247 11.1271 88.496 10.7151 89.0672 10.384C89.8425 9.93424 90.682 9.7094 91.5854 9.7094ZM67.9175 9.7094C69.4532 9.7094 70.6916 10.194 71.6326 11.1632C72.5735 12.1326 73.044 13.4858 73.044 15.2228V22.3223C73.044 22.576 72.8429 22.7831 72.5965 22.7831H70.3297C70.0833 22.7831 69.8822 22.576 69.8822 22.3223V15.6647C69.8822 14.6568 69.6337 13.8852 69.1371 13.3501C68.6402 12.8151 67.9626 12.5475 67.1045 12.5475C66.2462 12.5475 65.565 12.8151 65.0607 13.3501C64.556 13.8852 64.3039 14.6568 64.3039 15.6647V22.3223C64.3039 22.576 64.1028 22.7831 63.8564 22.7831H61.5899C61.3435 22.7831 61.1424 22.576 61.1424 22.3223V15.6647C61.1424 14.6568 60.8939 13.8852 60.397 13.3501C59.9001 12.8151 59.2226 12.5475 58.3644 12.5475C57.4913 12.5475 56.8024 12.8151 56.2979 13.3501C55.7935 13.8852 55.5413 14.6568 55.5413 15.6647V22.3223C55.5413 22.576 55.3403 22.7831 55.0938 22.7831H52.8271C52.5806 22.7831 52.3796 22.576 52.3796 22.3223V10.3566C52.3796 10.1028 52.5806 9.89559 52.8271 9.89559H55.5413V10.3432C55.5413 10.5235 55.635 10.6781 55.7922 10.7574C55.9497 10.8365 56.1256 10.8175 56.2638 10.7067C56.5186 10.5022 56.8014 10.3247 57.1109 10.1747C57.7508 9.86482 58.4547 9.7094 59.2226 9.7094C60.2012 9.7094 61.0744 9.92261 61.8423 10.3492C62.4163 10.668 62.8943 11.089 63.2746 11.6118C63.3611 11.7304 63.4845 11.795 63.6286 11.7961C63.7727 11.7974 63.8971 11.7353 63.9857 11.6182C64.3568 11.1271 64.828 10.7151 65.3993 10.384C66.1745 9.93424 67.014 9.7094 67.9175 9.7094ZM43.5268 22.9926C42.3223 22.9926 41.2383 22.7174 40.2746 22.1668C39.3112 21.6163 38.5547 20.8367 38.0052 19.8288C37.4556 18.8209 37.1807 17.6575 37.1807 16.3394C37.1807 15.021 37.463 13.8579 38.0276 12.85C38.5923 11.8418 39.3638 11.0626 40.3426 10.512C41.3211 9.9615 42.4127 9.68626 43.6173 9.68626C44.8218 9.68626 45.9132 9.9615 46.8919 10.512C47.8705 11.0626 48.642 11.8418 49.2067 12.85C49.7712 13.8579 50.0536 15.021 50.0536 16.3394C50.0536 17.6575 49.7638 18.8209 49.1842 19.8288C48.6045 20.8367 47.8216 21.6163 46.8353 22.1668C45.8492 22.7174 44.7464 22.9926 43.5268 22.9926ZM43.5268 20.1545C44.0989 20.1545 44.6373 20.0109 45.1416 19.7243C45.646 19.4373 46.0488 19.0069 46.3499 18.4331C46.6509 17.8592 46.8016 17.1614 46.8016 16.3394C46.8016 15.1142 46.4891 14.1722 45.8643 13.5129C45.2394 12.8538 44.4752 12.5244 43.5721 12.5244C42.6686 12.5244 41.9121 12.8538 41.3023 13.5129C40.6925 14.1722 40.3878 15.1142 40.3878 16.3394C40.3878 17.5647 40.6851 18.5067 41.2798 19.1658C41.8743 19.825 42.6234 20.1545 43.5268 20.1545Z"
    fill="#FA4354"
  />
<path
    fill-rule="evenodd"
    clip-rule="evenodd"
    d="M15.5751 15.5007L17.256 18.4997L18.9369 21.4987C19.1095 21.8066 19.1095 22.159 18.9369 22.4668C18.7644 22.7747 18.4681 22.951 18.123 22.951H14.7612H11.3992C11.0542 22.951 10.7578 22.7747 10.5853 22.4668C10.4127 22.159 10.4127 21.8066 10.5853 21.4987L12.2662 18.4997L13.9472 15.5007C14.1197 15.1929 14.4159 15.0166 14.7612 15.0166C15.1063 15.0166 15.4025 15.1929 15.5751 15.5007ZM4.50261 17.2666C5.12925 17.2666 5.69721 17.5289 6.10884 17.9528L6.1108 17.9548C6.52237 18.3788 6.77701 18.9639 6.77701 19.6093C6.77701 20.2548 6.52237 20.8399 6.1108 21.2639L6.10884 21.2659C5.69721 21.6898 5.12925 21.9521 4.50261 21.9521C3.87611 21.9521 3.30802 21.6898 2.89639 21.2659L2.89442 21.2639C2.48286 20.8399 2.22822 20.2548 2.22822 19.6093C2.22822 18.9639 2.48286 18.3788 2.89442 17.9548L2.89639 17.9528C3.30802 17.5289 3.87611 17.2666 4.50261 17.2666ZM5.38703 18.6983C5.1611 18.4662 4.84844 18.3226 4.50261 18.3226C4.15679 18.3226 3.84412 18.4662 3.61819 18.6983C3.39285 18.9311 3.2534 19.2531 3.2534 19.6093C3.2534 19.9656 3.39285 20.2876 3.61819 20.5204C3.84412 20.7525 4.15679 20.8961 4.50261 20.8961C4.84844 20.8961 5.1611 20.7525 5.38703 20.5204C5.61237 20.2876 5.75183 19.9656 5.75183 19.6093C5.75183 19.2531 5.61237 18.9311 5.38703 18.6983ZM1.41876 0.250366H7.09379C7.87414 0.250366 8.51255 0.907973 8.51255 1.71172V8.96393C7.32273 8.8275 6.25536 8.27278 5.45257 7.44579C4.67477 6.64467 4.14514 5.58793 3.99241 4.40835C4.15705 4.24483 4.25948 4.01521 4.25948 3.76113C4.25948 3.26463 3.86885 2.86225 3.3869 2.86225C2.90502 2.86225 2.51426 3.26463 2.51426 3.76113C2.51426 4.16924 2.77858 4.51407 3.1405 4.62349C3.33497 5.96484 3.94675 7.16564 4.83555 8.08116C5.79663 9.07127 7.08163 9.72766 8.51255 9.8676V21.5383C8.51255 22.342 7.87414 22.9997 7.09379 22.9997H1.41876C0.638408 22.9997 0 22.342 0 21.5383V1.71172C0 0.907973 0.638408 0.250366 1.41876 0.250366Z"
    fill="#FA4354"
    fill-opacity="0.702"
  />
<path
    fill-rule="evenodd"
    clip-rule="evenodd"
    d="M0.897959 17.8609L0 19.474V21.5386V21.5386C6.54107e-05 22.3425 0.638343 22.9999 1.41876 22.9999H7.09379C7.76013 22.9999 8.32286 22.5205 8.47304 21.8799L8.47331 21.8799L17.7975 5.1306C18.1855 4.43338 17.9579 3.53652 17.2832 3.13293L12.3757 0.197033C11.7009 -0.206625 10.8246 0.0294661 10.4363 0.726754L8.51255 4.18253L6.30219 8.15308C7.10491 8.68718 8.06129 8.99718 9.08784 8.99718C10.5076 8.99718 11.793 8.40439 12.7232 7.44615C13.4717 6.67502 13.9906 5.66699 14.1646 4.54071C13.9032 4.3854 13.7272 4.09461 13.7272 3.76149C13.7272 3.26499 14.1178 2.86261 14.5997 2.86261C15.0817 2.86261 15.4723 3.26499 15.4723 3.76149C15.4723 4.08908 15.3021 4.37577 15.0478 4.53283C14.8684 5.91076 14.2491 7.14545 13.3401 8.08152C12.2519 9.20261 10.7484 9.89606 9.08784 9.89606C7.90325 9.89606 6.79866 9.54307 5.86761 8.93377L0.897959 17.8609ZM4.50261 17.2669C5.12925 17.2669 5.69721 17.5292 6.10884 17.9532L6.1108 17.9552C6.52237 18.3792 6.77701 18.9643 6.77701 19.6097C6.77701 20.2552 6.52237 20.8402 6.1108 21.2642L6.10884 21.2662C5.69721 21.6902 5.12925 21.9525 4.50261 21.9525C3.87611 21.9525 3.30802 21.6902 2.89639 21.2662L2.89443 21.2642C2.48286 20.8402 2.22822 20.2552 2.22822 19.6097C2.22822 18.9643 2.48286 18.3792 2.89443 17.9552L2.89639 17.9532C3.30802 17.5292 3.87611 17.2669 4.50261 17.2669ZM5.38703 18.6987C5.1611 18.4666 4.84844 18.3229 4.50261 18.3229C4.15679 18.3229 3.84412 18.4666 3.61819 18.6987C3.39285 18.9314 3.2534 19.2535 3.2534 19.6097C3.2534 19.9659 3.39285 20.288 3.61819 20.5207C3.84412 20.7528 4.15679 20.8965 4.50261 20.8965C4.84844 20.8965 5.1611 20.7528 5.38703 20.5207C5.61237 20.288 5.75183 19.9659 5.75183 19.6097C5.75183 19.2535 5.61237 18.9314 5.38703 18.6987Z"
    fill="#FA4354"
  />
</svg>
