<svg width="293" height="89" viewBox="0 0 293 89" fill="none" xmlns="http://www.w3.org/2000/svg">
<rect x="148" width="138.211" height="45.4306" rx="10" fill="#00A699"/>
<rect x="165.854" y="1.91956" width="104.298" height="41.5914" rx="10" fill="#060809"/>
<mask id="mask0_323_1170" style="mask-type:alpha" maskUnits="userSpaceOnUse" x="165" y="1" width="106" height="43">
<rect x="166.354" y="2.41956" width="103.298" height="40.5914" rx="9.5" fill="#788AA1" stroke="white"/>
</mask>
<g mask="url(#mask0_323_1170)">
<rect opacity="0.2" width="2.42663" height="69.3705" rx="1.21331" transform="matrix(0.634529 0.772899 -0.522716 0.852507 257.062 -8.11975)" fill="#63768D"/>
<rect opacity="0.2" width="2.42663" height="69.3705" rx="1.21331" transform="matrix(0.634529 0.772899 -0.522716 0.852507 216.36 -8.11975)" fill="#63768D"/>
<rect opacity="0.2" width="2.42663" height="69.3705" rx="1.21331" transform="matrix(0.634529 0.772899 -0.522716 0.852507 175.658 -8.11975)" fill="#63768D"/>
<rect opacity="0.2" width="2.42663" height="69.3705" rx="1.21331" transform="matrix(0.634529 0.772899 -0.522716 0.852507 262.15 -8.11975)" fill="#63768D"/>
<rect opacity="0.2" width="2.42663" height="69.3705" rx="1.21331" transform="matrix(0.634529 0.772899 -0.522716 0.852507 221.448 -8.11975)" fill="#63768D"/>
<rect opacity="0.2" width="2.42663" height="69.3705" rx="1.21331" transform="matrix(0.634529 0.772899 -0.522716 0.852507 180.746 -8.11975)" fill="#63768D"/>
<rect opacity="0.2" width="2.42663" height="69.3705" rx="1.21331" transform="matrix(0.634529 0.772899 -0.522716 0.852507 267.237 -8.11975)" fill="#63768D"/>
<rect opacity="0.2" width="2.42663" height="69.3705" rx="1.21331" transform="matrix(0.634529 0.772899 -0.522716 0.852507 226.536 -8.11975)" fill="#63768D"/>
<rect opacity="0.2" width="2.42663" height="69.3705" rx="1.21331" transform="matrix(0.634529 0.772899 -0.522716 0.852507 185.834 -8.11975)" fill="#63768D"/>
<rect opacity="0.2" width="2.42663" height="69.3705" rx="1.21331" transform="matrix(0.634529 0.772899 -0.522716 0.852507 272.325 -8.11975)" fill="#63768D"/>
<rect opacity="0.2" width="2.42663" height="69.3705" rx="1.21331" transform="matrix(0.634529 0.772899 -0.522716 0.852507 231.623 -8.11975)" fill="#63768D"/>
<rect opacity="0.2" width="2.42663" height="69.3705" rx="1.21331" transform="matrix(0.634529 0.772899 -0.522716 0.852507 190.921 -8.11975)" fill="#63768D"/>
<rect opacity="0.2" width="2.42663" height="69.3705" rx="1.21331" transform="matrix(0.634529 0.772899 -0.522716 0.852507 277.413 -8.11975)" fill="#63768D"/>
<rect opacity="0.2" width="2.42663" height="69.3705" rx="1.21331" transform="matrix(0.634529 0.772899 -0.522716 0.852507 236.711 -8.11975)" fill="#63768D"/>
<rect opacity="0.2" width="2.42663" height="69.3705" rx="1.21331" transform="matrix(0.634529 0.772899 -0.522716 0.852507 196.01 -8.11975)" fill="#63768D"/>
<rect opacity="0.2" width="2.42663" height="69.3705" rx="1.21331" transform="matrix(0.634529 0.772899 -0.522716 0.852507 282.501 -8.11975)" fill="#63768D"/>
<rect opacity="0.2" width="2.42663" height="69.3705" rx="1.21331" transform="matrix(0.634529 0.772899 -0.522716 0.852507 241.799 -8.11975)" fill="#63768D"/>
<rect opacity="0.2" width="2.42663" height="69.3705" rx="1.21331" transform="matrix(0.634529 0.772899 -0.522716 0.852507 201.097 -8.11975)" fill="#63768D"/>
<rect opacity="0.2" width="2.42663" height="69.3705" rx="1.21331" transform="matrix(0.634529 0.772899 -0.522716 0.852507 287.589 -8.11975)" fill="#63768D"/>
<rect opacity="0.2" width="2.42663" height="69.3705" rx="1.21331" transform="matrix(0.634529 0.772899 -0.522716 0.852507 246.887 -8.11975)" fill="#63768D"/>
<rect opacity="0.2" width="2.42663" height="69.3705" rx="1.21331" transform="matrix(0.634529 0.772899 -0.522716 0.852507 206.185 -8.11975)" fill="#63768D"/>
<rect opacity="0.2" width="2.42663" height="69.3705" rx="1.21331" transform="matrix(0.634529 0.772899 -0.522716 0.852507 292.676 -8.11975)" fill="#63768D"/>
<rect opacity="0.2" width="2.42663" height="69.3705" rx="1.21331" transform="matrix(0.634529 0.772899 -0.522716 0.852507 295.22 -4.5343)" fill="#63768D"/>
<rect opacity="0.2" width="2.42663" height="69.3705" rx="1.21331" transform="matrix(0.634529 0.772899 -0.522716 0.852507 251.974 -8.11975)" fill="#63768D"/>
<rect opacity="0.2" width="2.42663" height="69.3705" rx="1.21331" transform="matrix(0.634529 0.772899 -0.522716 0.852507 211.273 -8.11975)" fill="#63768D"/>
</g>
<rect x="165.854" y="1.91956" width="104.298" height="41.5914" rx="10" fill="url(#paint0_linear_323_1170)"/>
<rect x="275.973" y="13.4373" width="2.55947" height="17.9163" rx="1.27973" fill="#060809"/>
<circle cx="2.55947" cy="2.55947" r="2.55947" transform="matrix(-1 0 0 1 160.158 19.8358)" fill="#060809"/>
<path d="M11.84 35.2923C10.0267 35.2923 8.33333 34.919 6.76 34.1723C5.18667 33.399 3.89333 32.3456 2.88 31.0123C1.86667 29.679 1.25333 28.1723 1.04 26.4923L5.88 25.0123C6.09333 26.6656 6.77333 28.0256 7.92 29.0923C9.09333 30.1323 10.4667 30.6523 12.04 30.6523C13.5067 30.6523 14.68 30.3323 15.56 29.6923C16.44 29.0523 16.88 28.199 16.88 27.1323C16.88 26.3056 16.6133 25.6256 16.08 25.0923C15.5733 24.559 14.92 24.1323 14.12 23.8123C13.32 23.4923 12.24 23.1323 10.88 22.7323C9.01333 22.1723 7.49333 21.6256 6.32 21.0923C5.14667 20.5323 4.13333 19.7056 3.28 18.6123C2.45333 17.519 2.04 16.0923 2.04 14.3323C2.04 12.8656 2.46667 11.5456 3.32 10.3723C4.17333 9.19896 5.33333 8.29229 6.8 7.65229C8.29333 6.98562 9.94667 6.65229 11.76 6.65229C13.52 6.65229 15.1333 6.94562 16.6 7.53229C18.0667 8.11896 19.28 8.95896 20.24 10.0523C21.2267 11.119 21.8667 12.3456 22.16 13.7323L17.28 15.7323C16.9867 14.3723 16.3467 13.2923 15.36 12.4923C14.4 11.6923 13.2 11.2923 11.76 11.2923C10.4267 11.2923 9.37333 11.5723 8.6 12.1323C7.82667 12.6656 7.44 13.399 7.44 14.3323C7.44 14.9723 7.66667 15.4923 8.12 15.8923C8.57333 16.2923 9.13333 16.6123 9.8 16.8523C10.4667 17.0923 11.44 17.3856 12.72 17.7323C14.6933 18.2123 16.3333 18.7456 17.64 19.3323C18.9467 19.8923 20.0667 20.7856 21 22.0123C21.9333 23.239 22.4 24.9056 22.4 27.0123C22.4 28.639 21.96 30.079 21.08 31.3323C20.2 32.5856 18.96 33.559 17.36 34.2523C15.76 34.9456 13.92 35.2923 11.84 35.2923ZM24.8628 6.65229H29.9028V17.9323C30.5695 16.839 31.4495 15.999 32.5428 15.4123C33.6628 14.799 34.9161 14.4923 36.3028 14.4923C38.5695 14.4923 40.3828 15.159 41.7428 16.4923C43.1295 17.8256 43.8228 19.5856 43.8228 21.7723V34.9723H38.7828V23.0123C38.7828 21.759 38.4228 20.7723 37.7028 20.0523C36.9828 19.3323 36.0095 18.9723 34.7828 18.9723C33.2361 18.9723 32.0361 19.6123 31.1828 20.8923C30.3295 22.1456 29.9028 23.919 29.9028 26.2123V34.9723H24.8628V6.65229ZM56.9209 35.2923C54.9209 35.2923 53.1209 34.8523 51.5209 33.9723C49.9209 33.0656 48.6676 31.8256 47.7609 30.2523C46.8543 28.6523 46.4009 26.8656 46.4009 24.8923C46.4009 22.919 46.8543 21.1456 47.7609 19.5723C48.6676 17.9723 49.9209 16.7323 51.5209 15.8523C53.1209 14.9456 54.9209 14.4923 56.9209 14.4923C58.9209 14.4923 60.7209 14.9456 62.3209 15.8523C63.9209 16.7323 65.1743 17.9723 66.0809 19.5723C66.9876 21.1456 67.4409 22.919 67.4409 24.8923C67.4409 26.8656 66.9876 28.6523 66.0809 30.2523C65.1743 31.8256 63.9209 33.0656 62.3209 33.9723C60.7209 34.8523 58.9209 35.2923 56.9209 35.2923ZM51.4809 24.8923C51.4809 26.7056 51.9743 28.1723 52.9609 29.2923C53.9743 30.3856 55.2943 30.9323 56.9209 30.9323C58.5476 30.9323 59.8543 30.3723 60.8409 29.2523C61.8543 28.1323 62.3609 26.679 62.3609 24.8923C62.3609 23.1056 61.8543 21.6523 60.8409 20.5323C59.8543 19.4123 58.5476 18.8523 56.9209 18.8523C55.2943 18.8523 53.9743 19.4123 52.9609 20.5323C51.9743 21.6256 51.4809 23.079 51.4809 24.8923ZM70.0209 14.8123H75.0609V17.1323C75.6476 16.3323 76.4609 15.6923 77.5009 15.2123C78.5676 14.7323 79.7543 14.4923 81.0609 14.4923C82.9543 14.4923 84.6076 14.9323 86.0209 15.8123C87.4343 16.6656 88.5143 17.879 89.2609 19.4523C90.0343 21.0256 90.4209 22.839 90.4209 24.8923C90.4209 26.9456 90.0209 28.759 89.2209 30.3323C88.4209 31.9056 87.2876 33.1323 85.8209 34.0123C84.3543 34.8656 82.6476 35.2923 80.7009 35.2923C79.5276 35.2923 78.4343 35.0923 77.4209 34.6923C76.4343 34.2656 75.6476 33.6923 75.0609 32.9723V42.2523H70.0209V14.8123ZM74.7409 24.8923C74.7409 26.7056 75.2209 28.1723 76.1809 29.2923C77.1676 30.3856 78.4743 30.9323 80.1009 30.9323C81.7009 30.9323 82.9809 30.3856 83.9409 29.2923C84.9276 28.1723 85.4209 26.7056 85.4209 24.8923C85.4209 23.079 84.9276 21.6256 83.9409 20.5323C82.9809 19.4123 81.7009 18.8523 80.1009 18.8523C78.4743 18.8523 77.1676 19.4123 76.1809 20.5323C75.2209 21.6256 74.7409 23.079 74.7409 24.8923ZM110.869 35.2923C108.869 35.2923 107.069 34.8523 105.469 33.9723C103.869 33.0656 102.616 31.8256 101.709 30.2523C100.802 28.6523 100.349 26.8656 100.349 24.8923C100.349 22.919 100.802 21.1456 101.709 19.5723C102.616 17.9723 103.869 16.7323 105.469 15.8523C107.069 14.9456 108.869 14.4923 110.869 14.4923C112.869 14.4923 114.669 14.9456 116.269 15.8523C117.869 16.7323 119.122 17.9723 120.029 19.5723C120.936 21.1456 121.389 22.919 121.389 24.8923C121.389 26.8656 120.936 28.6523 120.029 30.2523C119.122 31.8256 117.869 33.0656 116.269 33.9723C114.669 34.8523 112.869 35.2923 110.869 35.2923ZM105.429 24.8923C105.429 26.7056 105.922 28.1723 106.909 29.2923C107.922 30.3856 109.242 30.9323 110.869 30.9323C112.496 30.9323 113.802 30.3723 114.789 29.2523C115.802 28.1323 116.309 26.679 116.309 24.8923C116.309 23.1056 115.802 21.6523 114.789 20.5323C113.802 19.4123 112.496 18.8523 110.869 18.8523C109.242 18.8523 107.922 19.4123 106.909 20.5323C105.922 21.6256 105.429 23.079 105.429 24.8923ZM123.969 14.8123H129.009V17.8523C129.676 16.839 130.556 16.0256 131.649 15.4123C132.769 14.799 134.022 14.4923 135.409 14.4923C137.622 14.4923 139.396 15.159 140.729 16.4923C142.089 17.8256 142.769 19.5856 142.769 21.7723V34.9723H137.729V22.9723C137.729 21.7723 137.382 20.8123 136.689 20.0923C135.996 19.3456 135.062 18.9723 133.889 18.9723C132.342 18.9723 131.142 19.599 130.289 20.8523C129.436 22.1056 129.009 23.8656 129.009 26.1323V34.9723H123.969V14.8123ZM0.88 58.8123H5.96L9.44 71.9323L13.48 58.8123H18.08L22.12 71.9323L25.56 58.8123H30.64L24.4 78.9723H19.88L15.8 65.8123L11.64 78.9723H7.16L0.88 58.8123ZM32.7534 58.8123H37.7934V78.9723H32.7534V58.8123ZM38.0334 50.6523V55.8523H32.5934V50.6523H38.0334ZM53.4253 78.7723C52.4653 79.119 51.3853 79.2923 50.1853 79.2923C48.052 79.2923 46.332 78.7056 45.0253 77.5323C43.7186 76.359 43.0653 74.639 43.0653 72.3723V63.0523H39.6653V58.8123H43.0653V52.8923H48.1053V58.8123H53.1853V63.0523H48.1053V71.8923C48.1053 72.8256 48.332 73.559 48.7853 74.0923C49.2653 74.599 49.9053 74.8523 50.7053 74.8523C51.6386 74.8523 52.4253 74.6923 53.0653 74.3723L53.4253 78.7723ZM56.7006 50.6523H61.7406V61.9323C62.4073 60.839 63.2873 59.999 64.3806 59.4123C65.5006 58.799 66.754 58.4923 68.1406 58.4923C70.4073 58.4923 72.2206 59.159 73.5806 60.4923C74.9673 61.8256 75.6606 63.5856 75.6606 65.7723V78.9723H70.6206V67.0123C70.6206 65.759 70.2606 64.7723 69.5406 64.0523C68.8206 63.3323 67.8473 62.9723 66.6206 62.9723C65.074 62.9723 63.874 63.6123 63.0206 64.8923C62.1673 66.1456 61.7406 67.919 61.7406 70.2123V78.9723H56.7006V50.6523ZM87.9181 78.9723V50.9723H93.3581V62.0523L103.798 50.9723H110.958L100.158 62.1723L111.958 78.9723H105.158L96.4381 66.0923L93.3581 69.2523V78.9723H87.9181ZM121.495 79.2923C119.495 79.2923 117.695 78.8523 116.095 77.9723C114.495 77.0656 113.242 75.8256 112.335 74.2523C111.428 72.6523 110.975 70.8656 110.975 68.8923C110.975 66.919 111.428 65.1456 112.335 63.5723C113.242 61.9723 114.495 60.7323 116.095 59.8523C117.695 58.9456 119.495 58.4923 121.495 58.4923C123.495 58.4923 125.295 58.9456 126.895 59.8523C128.495 60.7323 129.748 61.9723 130.655 63.5723C131.562 65.1456 132.015 66.919 132.015 68.8923C132.015 70.8656 131.562 72.6523 130.655 74.2523C129.748 75.8256 128.495 77.0656 126.895 77.9723C125.295 78.8523 123.495 79.2923 121.495 79.2923ZM116.055 68.8923C116.055 70.7056 116.548 72.1723 117.535 73.2923C118.548 74.3856 119.868 74.9323 121.495 74.9323C123.122 74.9323 124.428 74.3723 125.415 73.2523C126.428 72.1323 126.935 70.679 126.935 68.8923C126.935 67.1056 126.428 65.6523 125.415 64.5323C124.428 63.4123 123.122 62.8523 121.495 62.8523C119.868 62.8523 118.548 63.4123 117.535 64.5323C116.548 65.6256 116.055 67.079 116.055 68.8923ZM134.595 58.8123H139.635V61.8923C140.222 60.8256 140.995 59.999 141.955 59.4123C142.942 58.799 144.102 58.4923 145.435 58.4923C147.035 58.4923 148.368 58.8256 149.435 59.4923C150.502 60.1323 151.262 61.0656 151.715 62.2923C152.302 61.199 153.182 60.2923 154.355 59.5723C155.528 58.8523 156.875 58.4923 158.395 58.4923C160.555 58.4923 162.288 59.1323 163.595 60.4123C164.928 61.6656 165.595 63.2923 165.595 65.2923V78.9723H160.555V66.6923C160.555 65.4656 160.235 64.5056 159.595 63.8123C158.955 63.119 158.048 62.7723 156.875 62.7723C155.542 62.7723 154.488 63.3056 153.715 64.3723C152.968 65.439 152.595 66.879 152.595 68.6923V78.9723H147.555V66.6923C147.555 65.4656 147.235 64.5056 146.595 63.8123C145.982 63.119 145.102 62.7723 143.955 62.7723C142.595 62.7723 141.528 63.319 140.755 64.4123C140.008 65.479 139.635 66.919 139.635 68.7323V78.9723H134.595V58.8123ZM169.283 58.8123H174.323V61.8923C174.91 60.8256 175.683 59.999 176.643 59.4123C177.63 58.799 178.79 58.4923 180.123 58.4923C181.723 58.4923 183.057 58.8256 184.123 59.4923C185.19 60.1323 185.95 61.0656 186.403 62.2923C186.99 61.199 187.87 60.2923 189.043 59.5723C190.217 58.8523 191.563 58.4923 193.083 58.4923C195.243 58.4923 196.977 59.1323 198.283 60.4123C199.617 61.6656 200.283 63.2923 200.283 65.2923V78.9723H195.243V66.6923C195.243 65.4656 194.923 64.5056 194.283 63.8123C193.643 63.119 192.737 62.7723 191.563 62.7723C190.23 62.7723 189.177 63.3056 188.403 64.3723C187.657 65.439 187.283 66.879 187.283 68.6923V78.9723H182.243V66.6923C182.243 65.4656 181.923 64.5056 181.283 63.8123C180.67 63.119 179.79 62.7723 178.643 62.7723C177.283 62.7723 176.217 63.319 175.443 64.4123C174.697 65.479 174.323 66.919 174.323 68.7323V78.9723H169.283V58.8123ZM202.892 68.8923C202.892 67.079 203.265 65.3856 204.012 63.8123C204.785 62.2123 205.919 60.9323 207.412 59.9723C208.905 58.9856 210.719 58.4923 212.852 58.4923C215.012 58.4923 216.852 58.959 218.372 59.8923C219.892 60.8256 221.039 62.039 221.812 63.5323C222.585 65.0256 222.972 66.5856 222.972 68.2123C222.972 68.9856 222.945 69.639 222.892 70.1723H207.892C208.105 71.719 208.679 72.919 209.612 73.7723C210.572 74.6256 211.785 75.0523 213.252 75.0523C214.425 75.0523 215.412 74.7856 216.212 74.2523C217.012 73.719 217.545 72.959 217.812 71.9723L222.572 73.2523C222.012 75.1456 220.892 76.6256 219.212 77.6923C217.559 78.759 215.532 79.2923 213.132 79.2923C210.999 79.2923 209.159 78.8123 207.612 77.8523C206.065 76.8656 204.892 75.5723 204.092 73.9723C203.292 72.3723 202.892 70.679 202.892 68.8923ZM217.572 66.5323C217.439 65.279 216.972 64.2656 216.172 63.4923C215.372 62.719 214.265 62.3323 212.852 62.3323C211.599 62.3323 210.545 62.6923 209.692 63.4123C208.865 64.1323 208.319 65.1723 208.052 66.5323H217.572ZM238.574 63.6923C237.854 63.3723 237.001 63.2123 236.014 63.2123C234.468 63.2123 233.174 63.9056 232.134 65.2923C231.121 66.6523 230.614 68.7456 230.614 71.5723V78.9723H225.574V58.8123H230.614V62.4923C231.121 61.3456 231.948 60.399 233.094 59.6523C234.268 58.879 235.468 58.4923 236.694 58.4923C237.521 58.4923 238.254 58.599 238.894 58.8123L238.574 63.6923ZM249.071 79.2923C247.071 79.2923 245.298 78.8523 243.751 77.9723C242.205 77.0923 240.991 75.8656 240.111 74.2923C239.258 72.719 238.831 70.919 238.831 68.8923C238.831 66.8656 239.258 65.0656 240.111 63.4923C240.991 61.919 242.205 60.6923 243.751 59.8123C245.298 58.9323 247.071 58.4923 249.071 58.4923C251.658 58.4923 253.791 59.119 255.471 60.3723C257.178 61.6256 258.205 63.319 258.551 65.4523L253.631 66.4123C253.445 65.3456 252.951 64.4923 252.151 63.8523C251.378 63.1856 250.405 62.8523 249.231 62.8523C247.658 62.8523 246.405 63.399 245.471 64.4923C244.538 65.5856 244.071 67.0523 244.071 68.8923C244.071 70.7323 244.538 72.199 245.471 73.2923C246.405 74.3856 247.658 74.9323 249.231 74.9323C250.405 74.9323 251.365 74.639 252.111 74.0523C252.885 73.439 253.391 72.5856 253.631 71.4923L258.551 72.4923C258.178 74.599 257.138 76.2656 255.431 77.4923C253.751 78.6923 251.631 79.2923 249.071 79.2923ZM259.653 68.8923C259.653 67.079 260.026 65.3856 260.773 63.8123C261.546 62.2123 262.679 60.9323 264.173 59.9723C265.666 58.9856 267.479 58.4923 269.613 58.4923C271.773 58.4923 273.613 58.959 275.133 59.8923C276.653 60.8256 277.799 62.039 278.573 63.5323C279.346 65.0256 279.733 66.5856 279.733 68.2123C279.733 68.9856 279.706 69.639 279.653 70.1723H264.653C264.866 71.719 265.439 72.919 266.373 73.7723C267.333 74.6256 268.546 75.0523 270.013 75.0523C271.186 75.0523 272.173 74.7856 272.973 74.2523C273.773 73.719 274.306 72.959 274.573 71.9723L279.333 73.2523C278.773 75.1456 277.653 76.6256 275.973 77.6923C274.319 78.759 272.293 79.2923 269.893 79.2923C267.759 79.2923 265.919 78.8123 264.373 77.8523C262.826 76.8656 261.653 75.5723 260.853 73.9723C260.053 72.3723 259.653 70.679 259.653 68.8923ZM274.333 66.5323C274.199 65.279 273.733 64.2656 272.933 63.4923C272.133 62.719 271.026 62.3323 269.613 62.3323C268.359 62.3323 267.306 62.6923 266.453 63.4123C265.626 64.1323 265.079 65.1723 264.813 66.5323H274.333Z" fill="white"/>
<path d="M169.509 14.8123H174.589L179.189 29.1323L183.789 14.8123H188.909L181.549 34.9723H176.869L169.509 14.8123ZM190.458 14.8123H195.498V34.9723H190.458V14.8123ZM195.738 6.65229V11.8523H190.298V6.65229H195.738ZM207.69 35.2923C205.717 35.2923 203.997 34.8656 202.53 34.0123C201.09 33.1323 199.983 31.9056 199.21 30.3323C198.463 28.759 198.09 26.9456 198.09 24.8923C198.09 22.839 198.463 21.0256 199.21 19.4523C199.983 17.879 201.09 16.6656 202.53 15.8123C203.97 14.9323 205.663 14.4923 207.61 14.4923C208.837 14.4923 209.97 14.7323 211.01 15.2123C212.05 15.6656 212.863 16.279 213.45 17.0523V6.65229H218.49V34.9723H213.45V32.6523C212.943 33.4523 212.17 34.0923 211.13 34.5723C210.09 35.0523 208.943 35.2923 207.69 35.2923ZM203.09 24.8923C203.09 26.7056 203.57 28.1723 204.53 29.2923C205.517 30.3856 206.81 30.9323 208.41 30.9323C210.037 30.9323 211.33 30.3856 212.29 29.2923C213.277 28.1723 213.77 26.7056 213.77 24.8923C213.77 23.079 213.277 21.6256 212.29 20.5323C211.33 19.4123 210.037 18.8523 208.41 18.8523C206.81 18.8523 205.517 19.4123 204.53 20.5323C203.57 21.6256 203.09 23.079 203.09 24.8923ZM221.099 24.8923C221.099 23.079 221.472 21.3856 222.219 19.8123C222.992 18.2123 224.125 16.9323 225.619 15.9723C227.112 14.9856 228.925 14.4923 231.059 14.4923C233.219 14.4923 235.059 14.959 236.579 15.8923C238.099 16.8256 239.245 18.039 240.019 19.5323C240.792 21.0256 241.179 22.5856 241.179 24.2123C241.179 24.9856 241.152 25.639 241.099 26.1723H226.099C226.312 27.719 226.885 28.919 227.819 29.7723C228.779 30.6256 229.992 31.0523 231.459 31.0523C232.632 31.0523 233.619 30.7856 234.419 30.2523C235.219 29.719 235.752 28.959 236.019 27.9723L240.779 29.2523C240.219 31.1456 239.099 32.6256 237.419 33.6923C235.765 34.759 233.739 35.2923 231.339 35.2923C229.205 35.2923 227.365 34.8123 225.819 33.8523C224.272 32.8656 223.099 31.5723 222.299 29.9723C221.499 28.3723 221.099 26.679 221.099 24.8923ZM235.779 22.5323C235.645 21.279 235.179 20.2656 234.379 19.4923C233.579 18.719 232.472 18.3323 231.059 18.3323C229.805 18.3323 228.752 18.6923 227.899 19.4123C227.072 20.1323 226.525 21.1723 226.259 22.5323H235.779ZM253.221 35.2923C251.221 35.2923 249.421 34.8523 247.821 33.9723C246.221 33.0656 244.968 31.8256 244.061 30.2523C243.155 28.6523 242.701 26.8656 242.701 24.8923C242.701 22.919 243.155 21.1456 244.061 19.5723C244.968 17.9723 246.221 16.7323 247.821 15.8523C249.421 14.9456 251.221 14.4923 253.221 14.4923C255.221 14.4923 257.021 14.9456 258.621 15.8523C260.221 16.7323 261.475 17.9723 262.381 19.5723C263.288 21.1456 263.741 22.919 263.741 24.8923C263.741 26.8656 263.288 28.6523 262.381 30.2523C261.475 31.8256 260.221 33.0656 258.621 33.9723C257.021 34.8523 255.221 35.2923 253.221 35.2923ZM247.781 24.8923C247.781 26.7056 248.275 28.1723 249.261 29.2923C250.275 30.3856 251.595 30.9323 253.221 30.9323C254.848 30.9323 256.155 30.3723 257.141 29.2523C258.155 28.1323 258.661 26.679 258.661 24.8923C258.661 23.1056 258.155 21.6523 257.141 20.5323C256.155 19.4123 254.848 18.8523 253.221 18.8523C251.595 18.8523 250.275 19.4123 249.261 20.5323C248.275 21.6256 247.781 23.079 247.781 24.8923Z" fill="#FFEBB3"/>
<defs>
<linearGradient id="paint0_linear_323_1170" x1="165.854" y1="35.6229" x2="285.02" y2="21.3486" gradientUnits="userSpaceOnUse">
<stop stop-color="#060809"/>
<stop offset="1" stop-color="#060809" stop-opacity="0"/>
</linearGradient>
</defs>
</svg>
