<svg width="248" height="55" viewBox="0 0 248 55" fill="none" xmlns="http://www.w3.org/2000/svg">
<rect width="247.711" height="54.4067" rx="27.2034" fill="#1B1C20"/>
<path d="M42.0456 16.1297C42.4747 15.106 43.9359 15.106 44.365 16.1297L46.8973 22.1716C47.0781 22.6032 47.4871 22.8981 47.9566 22.9354L54.5294 23.4583C55.6431 23.5469 56.0946 24.9261 55.2462 25.6474L50.2383 29.9044C49.8806 30.2085 49.7244 30.6856 49.8337 31.1402L51.3637 37.5054C51.6229 38.5838 50.4407 39.4362 49.4873 38.8583L43.86 35.4473C43.4581 35.2037 42.9525 35.2037 42.5506 35.4473L36.9233 38.8583C35.9699 39.4362 34.7877 38.5838 35.0469 37.5054L36.5769 31.1402C36.6862 30.6856 36.53 30.2085 36.1723 29.9044L31.1644 25.6474C30.316 24.9261 30.7675 23.5469 31.8812 23.4583L38.454 22.9354C38.9235 22.8981 39.3325 22.6032 39.5133 22.1716L42.0456 16.1297Z" fill="#FFD867"/>
<path d="M82.3706 16.1296C82.7996 15.106 84.2609 15.106 84.6899 16.1296L87.2222 22.1716C87.4031 22.6031 87.812 22.898 88.2815 22.9353L94.8544 23.4583C95.968 23.5469 96.4196 24.9261 95.5711 25.6473L90.5633 29.9044C90.2056 30.2084 90.0494 30.6855 90.1587 31.1402L91.6886 37.5053C91.9479 38.5837 90.7657 39.4361 89.8122 38.8582L84.1849 35.4473C83.783 35.2036 83.2775 35.2036 82.8756 35.4473L77.2483 38.8582C76.2948 39.4361 75.1126 38.5837 75.3719 37.5053L76.9018 31.1402C77.0111 30.6855 76.8549 30.2084 76.4972 29.9044L71.4894 25.6473C70.6409 24.9261 71.0925 23.5469 72.2061 23.4583L78.779 22.9353C79.2485 22.898 79.6574 22.6031 79.8383 22.1716L82.3706 16.1296Z" fill="#FFD867"/>
<path d="M122.696 16.1296C123.125 15.106 124.586 15.106 125.015 16.1296L127.547 22.1716C127.728 22.6031 128.137 22.898 128.607 22.9353L135.179 23.4583C136.293 23.5469 136.745 24.9261 135.896 25.6473L130.888 29.9044C130.531 30.2084 130.374 30.6855 130.484 31.1402L132.014 37.5053C132.273 38.5837 131.091 39.4361 130.137 38.8582L124.51 35.4473C124.108 35.2036 123.603 35.2036 123.201 35.4473L117.573 38.8582C116.62 39.4361 115.438 38.5837 115.697 37.5053L117.227 31.1402C117.336 30.6855 117.18 30.2084 116.822 29.9044L111.814 25.6473C110.966 24.9261 111.417 23.5469 112.531 23.4583L119.104 22.9353C119.573 22.898 119.982 22.6031 120.163 22.1716L122.696 16.1296Z" fill="#FFD867"/>
<path d="M163.021 16.1296C163.45 15.106 164.911 15.106 165.34 16.1296L167.872 22.1716C168.053 22.6031 168.462 22.898 168.932 22.9353L175.504 23.4583C176.618 23.5469 177.07 24.9261 176.221 25.6473L171.213 29.9044C170.856 30.2084 170.699 30.6855 170.809 31.1402L172.339 37.5053C172.598 38.5837 171.416 39.4361 170.462 38.8582L164.835 35.4473C164.433 35.2036 163.928 35.2036 163.526 35.4473L157.898 38.8582C156.945 39.4361 155.763 38.5837 156.022 37.5053L157.552 31.1402C157.661 30.6855 157.505 30.2084 157.147 29.9044L152.139 25.6473C151.291 24.9261 151.743 23.5469 152.856 23.4583L159.429 22.9353C159.898 22.898 160.307 22.6031 160.488 22.1716L163.021 16.1296Z" fill="#FFD867"/>
<path d="M203.346 16.1296C203.775 15.106 205.236 15.106 205.665 16.1296L208.197 22.1716C208.378 22.6031 208.787 22.898 209.257 22.9353L215.829 23.4583C216.943 23.5469 217.395 24.9261 216.546 25.6473L211.538 29.9044C211.181 30.2084 211.024 30.6855 211.134 31.1402L212.664 37.5053C212.923 38.5837 211.741 39.4361 210.787 38.8582L205.16 35.4473C204.758 35.2036 204.252 35.2036 203.851 35.4473L198.223 38.8582C197.27 39.4361 196.088 38.5837 196.347 37.5053L197.877 31.1402C197.986 30.6855 197.83 30.2084 197.472 29.9044L192.464 25.6473C191.616 24.9261 192.067 23.5469 193.181 23.4583L199.754 22.9353C200.223 22.898 200.632 22.6031 200.813 22.1716L203.346 16.1296Z" fill="#FFD867"/>
</svg>
