<svg width="1512" height="58" viewBox="0 0 1512 58" fill="none" xmlns="http://www.w3.org/2000/svg">
<path d="M-71.86 5V4.5H-72.3607L-72.36 5.00071L-71.86 5ZM-44.62 23.66L-45.0361 23.3826L-45.04 23.3887L-44.62 23.66ZM-49.78 27.98L-49.98 27.5217L-50.5037 27.7503L-50.2077 28.239L-49.78 27.98ZM-38.26 47V47.5H-37.3726L-37.8323 46.741L-38.26 47ZM-46.48 47L-46.9108 47.2538L-46.7657 47.5H-46.48V47ZM-56.98 29.18L-56.5492 28.9262L-56.6943 28.68H-56.98V29.18ZM-64.78 29.18V28.68H-65.28V29.18H-64.78ZM-64.78 47V47.5H-64.28V47H-64.78ZM-71.8 47L-72.3 47.0007L-72.2993 47.5H-71.8V47ZM-51.76 21.44L-52.0753 21.0519L-52.0813 21.0569L-51.76 21.44ZM-51.76 12.68L-52.0813 13.0631L-52.0753 13.0681L-51.76 12.68ZM-64.78 11.12V10.62H-65.28V11.12H-64.78ZM-64.78 23H-65.28V23.5H-64.78V23ZM-71.86 5.5H-56.08V4.5H-71.86V5.5ZM-56.08 5.5C-52.134 5.5 -49.0231 6.5721 -46.6948 8.67134L-46.0252 7.92865C-48.5769 5.62789 -51.946 4.5 -56.08 4.5V5.5ZM-46.6948 8.67134C-44.372 10.7657 -43.2 13.5445 -43.2 17.06H-42.2C-42.2 13.2955 -43.468 10.2343 -46.0252 7.92865L-46.6948 8.67134ZM-43.2 17.06C-43.2 19.449 -43.8149 21.551 -45.036 23.3826L-44.204 23.9373C-42.8651 21.929 -42.2 19.631 -42.2 17.06H-43.2ZM-45.04 23.3887C-46.2239 25.2218 -47.8653 26.599 -49.98 27.5217L-49.58 28.4383C-47.2947 27.441 -45.4961 25.9382 -44.2 23.9313L-45.04 23.3887ZM-50.2077 28.239L-38.6877 47.259L-37.8323 46.741L-49.3523 27.721L-50.2077 28.239ZM-38.26 46.5H-46.48V47.5H-38.26V46.5ZM-46.0492 46.7462L-56.5492 28.9262L-57.4108 29.4338L-46.9108 47.2538L-46.0492 46.7462ZM-56.98 28.68H-64.78V29.68H-56.98V28.68ZM-65.28 29.18V47H-64.28V29.18H-65.28ZM-64.78 46.5H-71.8V47.5H-64.78V46.5ZM-71.3 46.9993L-71.36 4.99928L-72.36 5.00071L-72.3 47.0007L-71.3 46.9993ZM-57.1 23.5C-54.7125 23.5 -52.8008 22.9655 -51.4387 21.8231L-52.0813 21.0569C-53.1992 21.9945 -54.8475 22.5 -57.1 22.5V23.5ZM-51.4447 21.8281C-50.0306 20.6791 -49.34 19.0668 -49.34 17.06H-50.34C-50.34 18.8132 -50.9294 20.1209 -52.0753 21.0519L-51.4447 21.8281ZM-49.34 17.06C-49.34 15.0532 -50.0306 13.4409 -51.4447 12.2919L-52.0753 13.0681C-50.9294 13.9991 -50.34 15.3068 -50.34 17.06H-49.34ZM-51.4387 12.2969C-52.8008 11.1545 -54.7125 10.62 -57.1 10.62V11.62C-54.8475 11.62 -53.1992 12.1255 -52.0813 13.0631L-51.4387 12.2969ZM-57.1 10.62H-64.78V11.62H-57.1V10.62ZM-65.28 11.12V23H-64.28V11.12H-65.28ZM-64.78 23.5H-57.1V22.5H-64.78V23.5ZM-34.5739 5V4.5H-35.0739V5H-34.5739ZM-7.1539 5H-6.6539V4.5H-7.1539V5ZM-7.1539 11.12V11.62H-6.6539V11.12H-7.1539ZM-27.5539 11.12V10.62H-28.0539V11.12H-27.5539ZM-27.5539 21.68H-28.0539V22.18H-27.5539V21.68ZM-11.1139 21.68H-10.6139V21.18H-11.1139V21.68ZM-11.1139 27.8V28.3H-10.6139V27.8H-11.1139ZM-27.5539 27.8V27.3H-28.0539V27.8H-27.5539ZM-27.5539 40.82H-28.0539V41.32H-27.5539V40.82ZM-6.4939 40.82H-5.9939V40.32H-6.4939V40.82ZM-6.4939 47V47.5H-5.9939V47H-6.4939ZM-34.5739 47H-35.0739V47.5H-34.5739V47ZM-34.5739 5.5H-7.1539V4.5H-34.5739V5.5ZM-7.6539 5V11.12H-6.6539V5H-7.6539ZM-7.1539 10.62H-27.5539V11.62H-7.1539V10.62ZM-28.0539 11.12V21.68H-27.0539V11.12H-28.0539ZM-27.5539 22.18H-11.1139V21.18H-27.5539V22.18ZM-11.6139 21.68V27.8H-10.6139V21.68H-11.6139ZM-11.1139 27.3H-27.5539V28.3H-11.1139V27.3ZM-28.0539 27.8V40.82H-27.0539V27.8H-28.0539ZM-27.5539 41.32H-6.4939V40.32H-27.5539V41.32ZM-6.9939 40.82V47H-5.9939V40.82H-6.9939ZM-6.4939 46.5H-34.5739V47.5H-6.4939V46.5ZM-34.0739 47V5H-35.0739V47H-34.0739ZM-1.27219 5V4.5H-1.77219V5H-1.27219ZM22.7278 7.4L22.5042 7.84722L22.5064 7.84831L22.7278 7.4ZM30.4078 14.54L29.9781 14.7957L29.9805 14.7996L30.4078 14.54ZM30.4078 37.46L29.9805 37.2004L29.9781 37.2044L30.4078 37.46ZM22.7278 44.6L22.5064 44.1517L22.5042 44.1528L22.7278 44.6ZM-1.27219 47H-1.77219V47.5H-1.27219V47ZM18.7678 39.32L18.9747 39.7752L18.9815 39.772L18.7678 39.32ZM24.0478 34.46L23.6204 34.2005L23.6191 34.2028L24.0478 34.46ZM24.0478 17.54L23.617 17.7939L23.6204 17.7995L24.0478 17.54ZM18.7678 12.68L18.5541 13.1321L18.5609 13.1352L18.7678 12.68ZM5.62782 11.12V10.62H5.12782V11.12H5.62782ZM5.62782 40.82H5.12782V41.32H5.62782V40.82ZM-1.27219 5.5H11.9278V4.5H-1.27219V5.5ZM11.9278 5.5C15.8595 5.5 19.3815 6.28584 22.5042 7.84721L22.9514 6.95279C19.6742 5.31415 15.9962 4.5 11.9278 4.5V5.5ZM22.5064 7.84831C25.6582 9.40477 28.1466 11.7171 29.9781 14.7956L30.8375 14.2844C28.9091 11.0429 26.2774 8.59523 22.9492 6.95168L22.5064 7.84831ZM29.9805 14.7996C31.8438 17.8663 32.7878 21.5921 32.7878 26H33.7878C33.7878 21.4479 32.8118 17.5337 30.8351 14.2804L29.9805 14.7996ZM32.7878 26C32.7878 30.4079 31.8438 34.1337 29.9805 37.2004L30.8351 37.7196C32.8118 34.4663 33.7878 30.5521 33.7878 26H32.7878ZM29.9781 37.2044C28.1466 40.2829 25.6582 42.5952 22.5064 44.1517L22.9492 45.0483C26.2774 43.4048 28.9091 40.9571 30.8375 37.7156L29.9781 37.2044ZM22.5042 44.1528C19.3815 45.7142 15.8595 46.5 11.9278 46.5V47.5C15.9962 47.5 19.6742 46.6858 22.9514 45.0472L22.5042 44.1528ZM11.9278 46.5H-1.27219V47.5H11.9278V46.5ZM-0.772186 47V5H-1.77219V47H-0.772186ZM11.4478 41.32C14.1914 41.32 16.703 40.8078 18.9747 39.7752L18.5609 38.8648C16.4327 39.8322 14.0643 40.32 11.4478 40.32V41.32ZM18.9815 39.772C21.2758 38.6874 23.1086 36.9972 24.4766 34.7172L23.6191 34.2028C22.347 36.3228 20.6598 37.8726 18.5541 38.868L18.9815 39.772ZM24.4752 34.7195C25.8949 32.3812 26.5878 29.4648 26.5878 26H25.5878C25.5878 29.3352 24.9208 32.0588 23.6204 34.2005L24.4752 34.7195ZM26.5878 26C26.5878 22.5352 25.8949 19.6188 24.4752 17.2805L23.6204 17.7995C24.9208 19.9412 25.5878 22.6648 25.5878 26H26.5878ZM24.4786 17.2862C23.1106 14.9647 21.2755 13.2706 18.9747 12.2248L18.5609 13.1352C20.6602 14.0894 22.345 15.6353 23.6171 17.7938L24.4786 17.2862ZM18.9815 12.228C16.7082 11.1533 14.1941 10.62 11.4478 10.62V11.62C14.0615 11.62 16.4275 12.1267 18.5541 13.132L18.9815 12.228ZM11.4478 10.62H5.62782V11.62H11.4478V10.62ZM5.12782 11.12V40.82H6.12782V11.12H5.12782ZM5.62782 41.32H11.4478V40.32H5.62782V41.32ZM38.4163 5V4.5H37.9163V5H38.4163ZM65.8363 5H66.3363V4.5H65.8363V5ZM65.8363 11.12V11.62H66.3363V11.12H65.8363ZM45.4363 11.12V10.62H44.9363V11.12H45.4363ZM45.4363 21.68H44.9363V22.18H45.4363V21.68ZM61.8763 21.68H62.3763V21.18H61.8763V21.68ZM61.8763 27.8V28.3H62.3763V27.8H61.8763ZM45.4363 27.8V27.3H44.9363V27.8H45.4363ZM45.4363 40.82H44.9363V41.32H45.4363V40.82ZM66.4962 40.82H66.9962V40.32H66.4962V40.82ZM66.4962 47V47.5H66.9962V47H66.4962ZM38.4163 47H37.9163V47.5H38.4163V47ZM38.4163 5.5H65.8363V4.5H38.4163V5.5ZM65.3363 5V11.12H66.3363V5H65.3363ZM65.8363 10.62H45.4363V11.62H65.8363V10.62ZM44.9363 11.12V21.68H45.9363V11.12H44.9363ZM45.4363 22.18H61.8763V21.18H45.4363V22.18ZM61.3763 21.68V27.8H62.3763V21.68H61.3763ZM61.8763 27.3H45.4363V28.3H61.8763V27.3ZM44.9363 27.8V40.82H45.9363V27.8H44.9363ZM45.4363 41.32H66.4962V40.32H45.4363V41.32ZM65.9962 40.82V47H66.9962V40.82H65.9962ZM66.4962 46.5H38.4163V47.5H66.4962V46.5ZM38.9163 47V5H37.9163V47H38.9163ZM71.718 5V4.5H71.218V5H71.718ZM99.498 5H99.998V4.5H99.498V5ZM99.498 11.12V11.62H99.998V11.12H99.498ZM78.738 11.12V10.62H78.238V11.12H78.738ZM78.738 22.16H78.238V22.66H78.738V22.16ZM95.598 22.16H96.098V21.66H95.598V22.16ZM95.598 28.28V28.78H96.098V28.28H95.598ZM78.738 28.28V27.78H78.238V28.28H78.738ZM78.738 47V47.5H79.238V47H78.738ZM71.718 47H71.218V47.5H71.718V47ZM71.718 5.5H99.498V4.5H71.718V5.5ZM98.998 5V11.12H99.998V5H98.998ZM99.498 10.62H78.738V11.62H99.498V10.62ZM78.238 11.12V22.16H79.238V11.12H78.238ZM78.738 22.66H95.598V21.66H78.738V22.66ZM95.098 22.16V28.28H96.098V22.16H95.098ZM95.598 27.78H78.738V28.78H95.598V27.78ZM78.238 28.28V47H79.238V28.28H78.238ZM78.738 46.5H71.718V47.5H78.738V46.5ZM72.218 47V5H71.218V47H72.218ZM104.492 5V4.5H103.992V5H104.492ZM111.512 5H112.012V4.5H111.512V5ZM111.512 47V47.5H112.012V47H111.512ZM104.492 47H103.992V47.5H104.492V47ZM104.492 5.5H111.512V4.5H104.492V5.5ZM111.012 5V47H112.012V5H111.012ZM111.512 46.5H104.492V47.5H111.512V46.5ZM104.992 47V5H103.992V47H104.992ZM118.575 5V4.5H118.075V5H118.575ZM125.955 5L126.38 4.73552L126.233 4.5H125.955V5ZM145.215 35.9L144.791 36.1645L145.715 37.6474V35.9H145.215ZM145.215 5V4.5H144.715V5H145.215ZM151.935 5H152.435V4.5H151.935V5ZM151.935 47V47.5H152.435V47H151.935ZM144.555 47L144.132 47.2654L144.279 47.5H144.555V47ZM125.235 16.16L125.659 15.8946L124.735 14.42V16.16H125.235ZM125.235 47V47.5H125.735V47H125.235ZM118.575 47H118.075V47.5H118.575V47ZM118.575 5.5H125.955V4.5H118.575V5.5ZM125.531 5.26448L144.791 36.1645L145.64 35.6355L126.38 4.73552L125.531 5.26448ZM145.715 35.9V5H144.715V35.9H145.715ZM145.215 5.5H151.935V4.5H145.215V5.5ZM151.435 5V47H152.435V5H151.435ZM151.935 46.5H144.555V47.5H151.935V46.5ZM144.979 46.7346L125.659 15.8946L124.812 16.4254L144.132 47.2654L144.979 46.7346ZM124.735 16.16V47H125.735V16.16H124.735ZM125.235 46.5H118.575V47.5H125.235V46.5ZM119.075 47V5H118.075V47H119.075ZM159.025 5V4.5H158.525V5H159.025ZM186.445 5H186.945V4.5H186.445V5ZM186.445 11.12V11.62H186.945V11.12H186.445ZM166.045 11.12V10.62H165.545V11.12H166.045ZM166.045 21.68H165.545V22.18H166.045V21.68ZM182.485 21.68H182.985V21.18H182.485V21.68ZM182.485 27.8V28.3H182.985V27.8H182.485ZM166.045 27.8V27.3H165.545V27.8H166.045ZM166.045 40.82H165.545V41.32H166.045V40.82ZM187.105 40.82H187.605V40.32H187.105V40.82ZM187.105 47V47.5H187.605V47H187.105ZM159.025 47H158.525V47.5H159.025V47ZM159.025 5.5H186.445V4.5H159.025V5.5ZM185.945 5V11.12H186.945V5H185.945ZM186.445 10.62H166.045V11.62H186.445V10.62ZM165.545 11.12V21.68H166.545V11.12H165.545ZM166.045 22.18H182.485V21.18H166.045V22.18ZM181.985 21.68V27.8H182.985V21.68H181.985ZM182.485 27.3H166.045V28.3H182.485V27.3ZM165.545 27.8V40.82H166.545V27.8H165.545ZM166.045 41.32H187.105V40.32H166.045V41.32ZM186.605 40.82V47H187.605V40.82H186.605ZM187.105 46.5H159.025V47.5H187.105V46.5ZM159.525 47V5H158.525V47H159.525ZM211.591 45.8L211.374 46.2503L211.591 45.8ZM205.831 41.18L205.429 41.4775L205.436 41.4864L205.831 41.18ZM203.011 34.4L202.864 33.9222L202.449 34.05L202.517 34.4784L203.011 34.4ZM209.431 32.42L209.927 32.3534L209.848 31.7682L209.284 31.9422L209.431 32.42ZM212.731 38.9L212.399 39.2733V39.2733L212.731 38.9ZM225.271 39.74L224.982 39.3324L224.977 39.3361L225.271 39.74ZM226.231 32L225.869 32.3453L225.878 32.3536L226.231 32ZM223.051 29.9L222.851 30.3582L222.863 30.3632L223.051 29.9ZM217.831 28.1L217.689 28.5795L217.692 28.5801L217.831 28.1ZM210.931 25.64L210.724 26.0952L210.931 25.64ZM206.431 22.1L206.036 22.4063L206.04 22.4111L206.431 22.1ZM206.431 9.98L206.03 9.68149L206.029 9.68307L206.431 9.98ZM211.591 5.96L211.391 5.50172L211.388 5.50309L211.591 5.96ZM226.111 5.84L226.3 5.37695L226.111 5.84ZM231.451 9.56L231.075 9.88937L231.084 9.89914L231.451 9.56ZM234.211 15.02L234.401 15.4827L234.78 15.3276L234.702 14.9256L234.211 15.02ZM227.911 17.6L227.421 17.6998L227.542 18.2916L228.101 18.0627L227.911 17.6ZM224.851 12.5L224.54 12.8914L224.545 12.8952L224.851 12.5ZM213.571 12.02L213.285 11.6098L213.279 11.614L213.571 12.02ZM212.731 18.5L212.378 18.8536L212.387 18.8634L212.398 18.8726L212.731 18.5ZM215.551 20.18L215.368 20.6454L215.378 20.6492L215.388 20.6527L215.551 20.18ZM220.231 21.56L220.36 21.0769L220.359 21.0767L220.231 21.56ZM227.611 24.02L227.411 24.4781L227.611 24.02ZM232.591 28.04L232.193 28.3428L232.197 28.347L232.591 28.04ZM232.771 41.66L232.361 41.3745L232.771 41.66ZM227.311 45.98L227.506 46.4404L227.513 46.4375L227.311 45.98ZM219.091 46.98C216.483 46.98 214.058 46.4357 211.809 45.3497L211.374 46.2503C213.764 47.4043 216.339 47.98 219.091 47.98V46.98ZM211.809 45.3497C209.555 44.262 207.697 42.7702 206.226 40.8736L205.436 41.4864C207.005 43.5098 208.987 45.098 211.374 46.2503L211.809 45.3497ZM206.233 40.8826C204.802 38.9488 203.893 36.7644 203.505 34.3216L202.517 34.4784C202.93 37.0756 203.9 39.4112 205.429 41.4774L206.233 40.8826ZM203.159 34.8778L209.579 32.8978L209.284 31.9422L202.864 33.9222L203.159 34.8778ZM208.936 32.4866C209.31 35.2726 210.46 37.5458 212.399 39.2733L213.064 38.5267C211.322 36.9742 210.273 34.9274 209.927 32.3534L208.936 32.4866ZM212.399 39.2733C214.334 40.9983 216.654 41.86 219.331 41.86V40.86C216.889 40.86 214.809 40.0817 213.064 38.5267L212.399 39.2733ZM219.331 41.86C221.88 41.86 223.975 41.3051 225.566 40.1439L224.977 39.3361C223.608 40.3349 221.742 40.86 219.331 40.86V41.86ZM225.561 40.1476C227.207 38.9778 228.051 37.3887 228.051 35.42H227.051C227.051 37.0513 226.375 38.3422 224.982 39.3324L225.561 40.1476ZM228.051 35.42C228.051 33.9055 227.571 32.6323 226.585 31.6464L225.878 32.3536C226.652 33.1277 227.051 34.1345 227.051 35.42H228.051ZM226.593 31.6548C225.698 30.7171 224.576 29.9798 223.239 29.4368L222.863 30.3632C224.086 30.8602 225.085 31.5229 225.87 32.3452L226.593 31.6548ZM223.252 29.4419C221.943 28.8696 220.18 28.2626 217.971 27.6199L217.692 28.5801C219.882 29.2174 221.599 29.8104 222.851 30.3581L223.252 29.4419ZM217.973 27.6205C215.145 26.784 212.869 25.9716 211.138 25.1848L210.724 26.0952C212.513 26.9084 214.838 27.736 217.689 28.5795L217.973 27.6205ZM211.138 25.1848C209.452 24.4186 208.015 23.2889 206.823 21.7889L206.04 22.4111C207.327 24.0311 208.89 25.2614 210.724 26.0952L211.138 25.1848ZM206.826 21.7937C205.672 20.3036 205.071 18.321 205.071 15.8H204.071C204.071 18.479 204.711 20.6964 206.036 22.4063L206.826 21.7937ZM205.071 15.8C205.071 13.7008 205.661 11.8661 206.834 10.2769L206.029 9.68307C204.722 11.4538 204.071 13.4992 204.071 15.8H205.071ZM206.832 10.2785C208.056 8.63434 209.705 7.34567 211.794 6.4169L211.388 5.50309C209.158 6.49433 207.367 7.88566 206.03 9.68149L206.832 10.2785ZM211.791 6.41827C213.92 5.48923 216.311 5.02 218.971 5.02V4.02C216.192 4.02 213.662 4.51077 211.391 5.50173L211.791 6.41827ZM218.971 5.02C221.514 5.02 223.829 5.4501 225.923 6.30304L226.3 5.37695C224.073 4.4699 221.629 4.02 218.971 4.02V5.02ZM225.923 6.30304C228.018 7.15656 229.731 8.35337 231.075 9.88925L231.828 9.23075C230.371 7.56663 228.525 6.28343 226.3 5.37695L225.923 6.30304ZM231.084 9.89914C232.461 11.3908 233.338 13.1261 233.72 15.1144L234.702 14.9256C234.285 12.7539 233.322 10.8492 231.819 9.22086L231.084 9.89914ZM234.022 14.5573L227.722 17.1373L228.101 18.0627L234.401 15.4827L234.022 14.5573ZM228.401 17.5002C227.94 15.2342 226.861 13.4248 225.158 12.1048L224.545 12.8952C226.042 14.0552 227.003 15.6458 227.421 17.6998L228.401 17.5002ZM225.162 12.1086C223.498 10.7859 221.423 10.14 218.971 10.14V11.14C221.24 11.14 223.084 11.7341 224.54 12.8914L225.162 12.1086ZM218.971 10.14C216.63 10.14 214.718 10.6116 213.285 11.6098L213.857 12.4302C215.065 11.5884 216.752 11.14 218.971 11.14V10.14ZM213.279 11.614C211.866 12.6296 211.151 14.0419 211.151 15.8H212.151C212.151 14.3581 212.716 13.2504 213.863 12.426L213.279 11.614ZM211.151 15.8C211.151 17.0037 211.558 18.0337 212.378 18.8536L213.085 18.1464C212.465 17.5263 212.151 16.7563 212.151 15.8H211.151ZM212.398 18.8726C213.209 19.5987 214.203 20.1875 215.368 20.6454L215.734 19.7146C214.66 19.2925 213.773 18.7613 213.065 18.1274L212.398 18.8726ZM215.388 20.6527C216.565 21.0583 218.138 21.5219 220.103 22.0433L220.359 21.0767C218.405 20.5581 216.858 20.1017 215.714 19.7073L215.388 20.6527ZM220.102 22.0431C223.088 22.8394 225.522 23.6518 227.411 24.4781L227.812 23.5619C225.86 22.7082 223.374 21.8806 220.36 21.0769L220.102 22.0431ZM227.411 24.4781C229.245 25.2805 230.839 26.5633 232.193 28.3428L232.989 27.7372C231.543 25.8367 229.817 24.4395 227.812 23.5619L227.411 24.4781ZM232.197 28.347C233.509 30.0339 234.191 32.3342 234.191 35.3H235.191C235.191 32.1858 234.474 29.6461 232.986 27.733L232.197 28.347ZM234.191 35.3C234.191 37.6055 233.578 39.6243 232.361 41.3745L233.182 41.9455C234.524 40.0157 235.191 37.7945 235.191 35.3H234.191ZM232.361 41.3745C231.141 43.1282 229.398 44.5138 227.11 45.5225L227.513 46.4375C229.944 45.3662 231.842 43.8718 233.182 41.9455L232.361 41.3745ZM227.116 45.5196C224.83 46.4885 222.158 46.98 219.091 46.98V47.98C222.264 47.98 225.073 47.4715 227.506 46.4404L227.116 45.5196ZM273.553 5H274.053V4.5H273.553V5ZM273.553 47V47.5H274.053V47H273.553ZM266.473 47H265.973V47.5H266.473V47ZM266.473 28.16H266.973V27.66H266.473V28.16ZM246.673 28.16V27.66H246.173V28.16H246.673ZM246.673 47V47.5H247.173V47H246.673ZM239.653 47H239.153V47.5H239.653V47ZM239.653 5V4.5H239.153V5H239.653ZM246.673 5H247.173V4.5H246.673V5ZM246.673 21.98H246.173V22.48H246.673V21.98ZM266.473 21.98V22.48H266.973V21.98H266.473ZM266.473 5V4.5H265.973V5H266.473ZM273.053 5V47H274.053V5H273.053ZM273.553 46.5H266.473V47.5H273.553V46.5ZM266.973 47V28.16H265.973V47H266.973ZM266.473 27.66H246.673V28.66H266.473V27.66ZM246.173 28.16V47H247.173V28.16H246.173ZM246.673 46.5H239.653V47.5H246.673V46.5ZM240.153 47V5H239.153V47H240.153ZM239.653 5.5H246.673V4.5H239.653V5.5ZM246.173 5V21.98H247.173V5H246.173ZM246.673 22.48H266.473V21.48H246.673V22.48ZM266.973 21.98V5H265.973V21.98H266.973ZM266.473 5.5H273.553V4.5H266.473V5.5ZM288.971 44.72L288.715 45.1497L288.722 45.1535L288.971 44.72ZM281.471 37.04L281.032 37.2806L281.036 37.2869L281.471 37.04ZM281.471 15.02L281.035 14.7754L281.034 14.7772L281.471 15.02ZM288.971 7.34L289.222 7.77209L289.224 7.7711L288.971 7.34ZM310.511 7.34L310.255 7.76975L310.262 7.77345L310.511 7.34ZM318.011 15.02L317.572 15.2606L317.576 15.2669L318.011 15.02ZM318.011 37.04L317.575 36.7954L317.574 36.7972L318.011 37.04ZM310.511 44.72L310.762 45.1521L310.764 45.1511L310.511 44.72ZM292.571 39.32L292.303 39.7422L292.307 39.7444L292.571 39.32ZM306.911 39.32L306.646 38.8955L306.643 38.8978L306.911 39.32ZM311.891 33.86L312.335 34.0897L311.891 33.86ZM311.891 18.14L311.445 18.3666L311.447 18.3697L311.891 18.14ZM306.911 12.62L306.643 13.0422L306.647 13.0444L306.911 12.62ZM292.571 12.62L292.306 12.1955L292.303 12.1978L292.571 12.62ZM287.651 18.14L288.095 18.3697L288.096 18.3666L287.651 18.14ZM299.771 46.98C295.851 46.98 292.338 46.0793 289.22 44.2865L288.722 45.1535C292.004 47.0407 295.691 47.98 299.771 47.98V46.98ZM289.226 44.2903C286.142 42.4553 283.703 39.9587 281.906 36.7931L281.036 37.2869C282.918 40.6013 285.48 43.2247 288.715 45.1497L289.226 44.2903ZM281.909 36.7994C280.153 33.5997 279.271 30.0037 279.271 26H278.271C278.271 30.1563 279.188 33.9203 281.032 37.2805L281.909 36.7994ZM279.271 26C279.271 21.9962 280.153 18.4212 281.908 15.2628L281.034 14.7772C279.188 18.0988 278.271 21.8438 278.271 26H279.271ZM281.907 15.2646C283.704 12.0601 286.142 9.56586 289.222 7.77209L288.719 6.90791C285.48 8.79414 282.917 11.4199 281.035 14.7754L281.907 15.2646ZM289.224 7.7711C292.341 5.93971 295.853 5.02 299.771 5.02V4.02C295.689 4.02 292 4.98029 288.717 6.90889L289.224 7.7711ZM299.771 5.02C303.689 5.02 307.179 5.93972 310.255 7.7697L310.766 6.9103C307.522 4.98028 303.853 4.02 299.771 4.02V5.02ZM310.262 7.77345C313.381 9.56707 315.816 12.0598 317.572 15.2605L318.449 14.7794C316.606 11.4202 314.041 8.79293 310.76 6.90655L310.262 7.77345ZM317.576 15.2669C319.369 18.4246 320.271 21.9981 320.271 26H321.271C321.271 21.8419 320.332 18.0954 318.446 14.7731L317.576 15.2669ZM320.271 26C320.271 30.0018 319.369 33.5964 317.575 36.7954L318.447 37.2846C320.332 33.9236 321.271 30.1582 321.271 26H320.271ZM317.574 36.7972C315.817 39.959 313.381 42.4541 310.258 44.2889L310.764 45.1511C314.041 43.2259 316.604 40.601 318.448 37.2828L317.574 36.7972ZM310.259 44.2879C307.183 46.0793 303.691 46.98 299.771 46.98V47.98C303.851 47.98 307.519 47.0407 310.762 45.1521L310.259 44.2879ZM285.351 26C285.351 28.9904 285.966 31.6907 287.207 34.0897L288.095 33.6303C286.936 31.3893 286.351 28.8496 286.351 26H285.351ZM287.207 34.0897C288.445 36.4834 290.144 38.3719 292.303 39.7422L292.839 38.8978C290.838 37.6281 289.257 35.8766 288.095 33.6303L287.207 34.0897ZM292.307 39.7444C294.512 41.1175 297.004 41.8 299.771 41.8V40.8C297.177 40.8 294.87 40.1625 292.835 38.8955L292.307 39.7444ZM299.771 41.8C302.537 41.8 305.012 41.1175 307.179 39.7422L306.643 38.8978C304.65 40.1625 302.365 40.8 299.771 40.8V41.8ZM307.175 39.7444C309.375 38.3747 311.096 36.4858 312.335 34.0897L311.447 33.6303C310.286 35.8742 308.687 37.6253 306.647 38.8955L307.175 39.7444ZM312.335 34.0897C313.576 31.6907 314.191 28.9904 314.191 26H313.191C313.191 28.8496 312.606 31.3893 311.447 33.6303L312.335 34.0897ZM314.191 26C314.191 23.0096 313.576 20.3093 312.335 17.9103L311.447 18.3697C312.606 20.6107 313.191 23.1504 313.191 26H314.191ZM312.336 17.9134C311.098 15.4772 309.377 13.5667 307.175 12.1956L306.647 13.0444C308.684 14.3133 310.284 16.0828 311.445 18.3666L312.336 17.9134ZM307.179 12.1978C305.012 10.8225 302.537 10.14 299.771 10.14V11.14C302.365 11.14 304.65 11.7775 306.643 13.0422L307.179 12.1978ZM299.771 10.14C297.004 10.14 294.512 10.8225 292.307 12.1956L292.835 13.0444C294.87 11.7775 297.177 11.14 299.771 11.14V10.14ZM292.303 12.1978C290.141 13.5695 288.443 15.4796 287.205 17.9134L288.096 18.3666C289.259 16.0804 290.84 14.3105 292.839 13.0422L292.303 12.1978ZM287.207 17.9103C285.966 20.3093 285.351 23.0096 285.351 26H286.351C286.351 23.1504 286.936 20.6107 288.095 18.3697L287.207 17.9103ZM326.003 5V4.5H325.503V5H326.003ZM349.823 6.56L349.599 7.00727L349.606 7.01062L349.823 6.56ZM354.623 10.94L354.191 11.1919L354.193 11.1959L354.623 10.94ZM354.623 24.2L355.052 24.4559L355.055 24.4519L354.623 24.2ZM349.823 28.58L350.039 29.0307L350.046 29.0272L349.823 28.58ZM333.083 30.08V29.58H332.583V30.08H333.083ZM333.083 47V47.5H333.583V47H333.083ZM326.003 47H325.503V47.5H326.003V47ZM347.243 22.28L347.578 22.6511L347.579 22.6505L347.243 22.28ZM347.243 12.86L346.901 13.2251L346.907 13.2308L346.914 13.2363L347.243 12.86ZM333.083 11.12V10.62H332.583V11.12H333.083ZM333.083 23.96H332.583V24.46H333.083V23.96ZM326.003 5.5H342.563V4.5H326.003V5.5ZM342.563 5.5C345.26 5.5 347.6 6.00784 349.599 7.00721L350.046 6.11278C347.885 5.03216 345.386 4.5 342.563 4.5V5.5ZM349.606 7.01062C351.6 7.96912 353.123 9.3616 354.191 11.1919L355.055 10.6881C353.882 8.6784 352.206 7.15087 350.039 6.10937L349.606 7.01062ZM354.193 11.1959C355.261 12.9874 355.803 15.0962 355.803 17.54H356.803C356.803 14.9438 356.225 12.6526 355.052 10.6841L354.193 11.1959ZM355.803 17.54C355.803 19.9835 355.261 22.1143 354.191 23.9481L355.055 24.4519C356.225 22.4457 356.803 20.1365 356.803 17.54H355.803ZM354.193 23.9441C353.125 25.7367 351.599 27.1327 349.599 28.1328L350.046 29.0272C352.206 27.9473 353.88 26.4233 355.052 24.4559L354.193 23.9441ZM349.606 28.1294C347.606 29.0911 345.262 29.58 342.563 29.58V30.58C345.383 30.58 347.88 30.0689 350.039 29.0306L349.606 28.1294ZM342.563 29.58H333.083V30.58H342.563V29.58ZM332.583 30.08V47H333.583V30.08H332.583ZM333.083 46.5H326.003V47.5H333.083V46.5ZM326.503 47V5H325.503V47H326.503ZM342.083 24.46C344.367 24.46 346.22 23.8775 347.578 22.651L346.908 21.9089C345.786 22.9225 344.199 23.46 342.083 23.46V24.46ZM347.579 22.6505C348.98 21.3804 349.663 19.6567 349.663 17.54H348.663C348.663 19.4233 348.066 20.8596 346.907 21.9095L347.579 22.6505ZM349.663 17.54C349.663 15.4237 348.98 13.7156 347.572 12.4837L346.914 13.2363C348.066 14.2444 348.663 15.6563 348.663 17.54H349.663ZM347.584 12.4949C346.227 11.2249 344.371 10.62 342.083 10.62V11.62C344.195 11.62 345.779 12.1751 346.901 13.2251L347.584 12.4949ZM342.083 10.62H333.083V11.62H342.083V10.62ZM332.583 11.12V23.96H333.583V11.12H332.583ZM333.083 24.46H342.083V23.46H333.083V24.46ZM360.535 5V4.5H360.035V5H360.535ZM384.355 6.56L384.131 7.00727L384.138 7.01062L384.355 6.56ZM389.155 10.94L388.723 11.1919L388.725 11.1959L389.155 10.94ZM389.155 24.2L389.585 24.4559L389.587 24.4519L389.155 24.2ZM384.355 28.58L384.572 29.0307L384.579 29.0272L384.355 28.58ZM367.615 30.08V29.58H367.115V30.08H367.615ZM367.615 47V47.5H368.115V47H367.615ZM360.535 47H360.035V47.5H360.535V47ZM381.775 22.28L382.11 22.6511L382.111 22.6505L381.775 22.28ZM381.775 12.86L381.433 13.2251L381.439 13.2308L381.446 13.2363L381.775 12.86ZM367.615 11.12V10.62H367.115V11.12H367.615ZM367.615 23.96H367.115V24.46H367.615V23.96ZM360.535 5.5H377.095V4.5H360.535V5.5ZM377.095 5.5C379.792 5.5 382.133 6.00784 384.131 7.00721L384.579 6.11278C382.417 5.03216 379.918 4.5 377.095 4.5V5.5ZM384.138 7.01062C386.132 7.96912 387.655 9.3616 388.723 11.1919L389.587 10.6881C388.415 8.6784 386.738 7.15087 384.572 6.10937L384.138 7.01062ZM388.725 11.1959C389.793 12.9874 390.335 15.0962 390.335 17.54H391.335C391.335 14.9438 390.757 12.6526 389.585 10.6841L388.725 11.1959ZM390.335 17.54C390.335 19.9835 389.793 22.1143 388.723 23.9481L389.587 24.4519C390.757 22.4457 391.335 20.1365 391.335 17.54H390.335ZM388.725 23.9441C387.658 25.7367 386.131 27.1327 384.131 28.1328L384.579 29.0272C386.739 27.9473 388.412 26.4233 389.585 24.4559L388.725 23.9441ZM384.138 28.1294C382.138 29.0911 379.794 29.58 377.095 29.58V30.58C379.915 30.58 382.412 30.0689 384.572 29.0306L384.138 28.1294ZM377.095 29.58H367.615V30.58H377.095V29.58ZM367.115 30.08V47H368.115V30.08H367.115ZM367.615 46.5H360.535V47.5H367.615V46.5ZM361.035 47V5H360.035V47H361.035ZM376.615 24.46C378.899 24.46 380.752 23.8775 382.11 22.651L381.44 21.9089C380.318 22.9225 378.731 23.46 376.615 23.46V24.46ZM382.111 22.6505C383.512 21.3804 384.195 19.6567 384.195 17.54H383.195C383.195 19.4233 382.598 20.8596 381.439 21.9095L382.111 22.6505ZM384.195 17.54C384.195 15.4237 383.512 13.7156 382.104 12.4837L381.446 13.2363C382.598 14.2444 383.195 15.6563 383.195 17.54H384.195ZM382.117 12.4949C380.759 11.2249 378.903 10.62 376.615 10.62V11.62C378.727 11.62 380.311 12.1751 381.433 13.2251L382.117 12.4949ZM376.615 10.62H367.615V11.62H376.615V10.62ZM367.115 11.12V23.96H368.115V11.12H367.115ZM367.615 24.46H376.615V23.46H367.615V24.46ZM395.067 5V4.5H394.567V5H395.067ZM402.087 5H402.587V4.5H402.087V5ZM402.087 47V47.5H402.587V47H402.087ZM395.067 47H394.567V47.5H395.067V47ZM395.067 5.5H402.087V4.5H395.067V5.5ZM401.587 5V47H402.587V5H401.587ZM402.087 46.5H395.067V47.5H402.087V46.5ZM395.567 47V5H394.567V47H395.567ZM409.15 5V4.5H408.65V5H409.15ZM416.53 5L416.954 4.73552L416.808 4.5H416.53V5ZM435.79 35.9L435.366 36.1645L436.29 37.6474V35.9H435.79ZM435.79 5V4.5H435.29V5H435.79ZM442.51 5H443.01V4.5H442.51V5ZM442.51 47V47.5H443.01V47H442.51ZM435.13 47L434.706 47.2654L434.853 47.5H435.13V47ZM415.81 16.16L416.234 15.8946L415.31 14.42V16.16H415.81ZM415.81 47V47.5H416.31V47H415.81ZM409.15 47H408.65V47.5H409.15V47ZM409.15 5.5H416.53V4.5H409.15V5.5ZM416.106 5.26448L435.366 36.1645L436.214 35.6355L416.954 4.73552L416.106 5.26448ZM436.29 35.9V5H435.29V35.9H436.29ZM435.79 5.5H442.51V4.5H435.79V5.5ZM442.01 5V47H443.01V5H442.01ZM442.51 46.5H435.13V47.5H442.51V46.5ZM435.554 46.7346L416.234 15.8946L415.386 16.4254L434.706 47.2654L435.554 46.7346ZM415.31 16.16V47H416.31V16.16H415.31ZM415.81 46.5H409.15V47.5H415.81V46.5ZM409.65 47V5H408.65V47H409.65ZM458 45.02L457.765 45.4613L457.768 45.4626L458 45.02ZM450.56 37.76L450.128 38.0109L450.129 38.0133L450.56 37.76ZM450.62 14.3L451.049 14.5573L451.05 14.5549L450.62 14.3ZM458.24 6.98L458.01 6.5362L458.24 6.98ZM486.98 18.2L487.082 18.6896L487.563 18.5901L487.472 18.1073L486.98 18.2ZM480.02 19.64L479.53 19.7394L479.63 20.2313L480.122 20.1296L480.02 19.64ZM476.06 13.1L475.747 13.4898L475.755 13.4963L476.06 13.1ZM461.36 12.44L461.11 12.0069L461.107 12.009L461.36 12.44ZM456.56 17.72L456.113 17.4964L456.11 17.5026L456.56 17.72ZM456.56 34.28L456.11 34.4974L456.115 34.5067L456.56 34.28ZM461.36 39.5L461.107 39.931L461.36 39.5ZM476.72 38.42L477.056 38.7906L477.056 38.7903L476.72 38.42ZM480.26 30.68L480.759 30.7112L480.793 30.18H480.26V30.68ZM466.82 30.68H466.32V31.18H466.82V30.68ZM466.82 24.86V24.36H466.32V24.86H466.82ZM486.8 24.86H487.3V24.36H486.8V24.86ZM486.8 47V47.5H487.3V47H486.8ZM480.44 47H479.94V47.5H480.44V47ZM480.44 41.36H480.94L479.997 41.1287L480.44 41.36ZM475.64 45.8L475.417 45.3528L475.64 45.8ZM468.14 46.98C464.579 46.98 461.279 46.1784 458.233 44.5774L457.768 45.4626C460.962 47.1416 464.422 47.98 468.14 47.98V46.98ZM458.235 44.5787C455.242 42.9848 452.828 40.6324 450.991 37.5067L450.129 38.0133C452.053 41.2876 454.599 43.7752 457.765 45.4613L458.235 44.5787ZM450.993 37.5091C449.166 34.3609 448.24 30.5318 448.24 26H447.24C447.24 30.6682 448.195 34.6791 450.128 38.0109L450.993 37.5091ZM448.24 26C448.24 21.4696 449.185 17.6633 451.049 14.5572L450.192 14.0428C448.215 17.3367 447.24 21.3304 447.24 26H448.24ZM451.05 14.5549C452.926 11.3904 455.398 9.01821 458.471 7.42379L458.01 6.5362C454.762 8.22179 452.155 10.7296 450.19 14.0451L451.05 14.5549ZM458.471 7.42379C461.557 5.82199 464.898 5.02 468.5 5.02V4.02C464.743 4.02 461.244 4.85801 458.01 6.5362L458.471 7.42379ZM468.5 5.02C473.294 5.02 477.285 6.21699 480.504 8.58289L481.096 7.77711C477.676 5.26301 473.467 4.02 468.5 4.02V5.02ZM480.504 8.58289C483.717 10.9441 485.711 14.1706 486.489 18.2927L487.472 18.1073C486.649 13.7494 484.524 10.2959 481.096 7.77711L480.504 8.58289ZM486.879 17.7104L479.919 19.1504L480.122 20.1296L487.082 18.6896L486.879 17.7104ZM480.51 19.5406C479.928 16.6719 478.548 14.3827 476.365 12.7037L475.755 13.4963C477.733 15.0173 478.992 17.0881 479.53 19.7394L480.51 19.5406ZM476.374 12.7103C474.231 10.9877 471.575 10.14 468.44 10.14V11.14C471.386 11.14 473.81 11.9323 475.747 13.4897L476.374 12.7103ZM468.44 10.14C465.722 10.14 463.274 10.7588 461.11 12.0069L461.61 12.8731C463.607 11.7212 465.879 11.14 468.44 11.14V10.14ZM461.107 12.009C458.976 13.2627 457.312 15.0986 456.113 17.4964L457.008 17.9436C458.129 15.7014 459.665 14.0173 461.614 12.871L461.107 12.009ZM456.11 17.5026C454.95 19.9048 454.38 22.7425 454.38 26H455.38C455.38 22.8575 455.93 20.1752 457.011 17.9374L456.11 17.5026ZM454.38 26C454.38 29.2575 454.95 32.0952 456.11 34.4974L457.011 34.0626C455.93 31.8248 455.38 29.1425 455.38 26H454.38ZM456.115 34.5067C457.314 36.8646 458.978 38.6787 461.107 39.931L461.614 39.069C459.663 37.9213 458.126 36.2554 457.006 34.0533L456.115 34.5067ZM461.107 39.931C463.232 41.1812 465.662 41.8 468.38 41.8V40.8C465.819 40.8 463.568 40.2188 461.614 39.069L461.107 39.931ZM468.38 41.8C471.918 41.8 474.826 40.8101 477.056 38.7906L476.385 38.0494C474.375 39.8699 471.723 40.8 468.38 40.8V41.8ZM477.056 38.7903C479.323 36.7337 480.552 34.027 480.759 30.7112L479.761 30.6488C479.569 33.733 478.438 36.1863 476.384 38.0497L477.056 38.7903ZM480.26 30.18H466.82V31.18H480.26V30.18ZM467.32 30.68V24.86H466.32V30.68H467.32ZM466.82 25.36H486.8V24.36H466.82V25.36ZM486.3 24.86V47H487.3V24.86H486.3ZM486.8 46.5H480.44V47.5H486.8V46.5ZM480.94 47V41.36H479.94V47H480.94ZM479.997 41.1287C479.095 42.8575 477.582 44.2699 475.417 45.3528L475.864 46.2472C478.178 45.0901 479.866 43.5425 480.884 41.5913L479.997 41.1287ZM475.417 45.3528C473.253 46.4346 470.831 46.98 468.14 46.98V47.98C470.97 47.98 473.548 47.4054 475.864 46.2472L475.417 45.3528Z" fill="#63768D"/>
<path d="M519.14 5V4.5H518.639L518.64 5.00071L519.14 5ZM546.38 23.66L545.964 23.3826L545.96 23.3887L546.38 23.66ZM541.22 27.98L541.02 27.5217L540.496 27.7503L540.792 28.239L541.22 27.98ZM552.74 47V47.5H553.627L553.168 46.741L552.74 47ZM544.52 47L544.089 47.2538L544.234 47.5H544.52V47ZM534.02 29.18L534.451 28.9262L534.306 28.68H534.02V29.18ZM526.22 29.18V28.68H525.72V29.18H526.22ZM526.22 47V47.5H526.72V47H526.22ZM519.2 47L518.7 47.0007L518.701 47.5H519.2V47ZM539.24 21.44L538.925 21.0519L538.919 21.0569L539.24 21.44ZM539.24 12.68L538.919 13.0631L538.925 13.0681L539.24 12.68ZM526.22 11.12V10.62H525.72V11.12H526.22ZM526.22 23H525.72V23.5H526.22V23ZM519.14 5.5H534.92V4.5H519.14V5.5ZM534.92 5.5C538.866 5.5 541.977 6.5721 544.305 8.67134L544.975 7.92865C542.423 5.62789 539.054 4.5 534.92 4.5V5.5ZM544.305 8.67134C546.628 10.7657 547.8 13.5445 547.8 17.06H548.8C548.8 13.2955 547.532 10.2343 544.975 7.92865L544.305 8.67134ZM547.8 17.06C547.8 19.449 547.185 21.551 545.964 23.3826L546.796 23.9373C548.135 21.929 548.8 19.631 548.8 17.06H547.8ZM545.96 23.3887C544.776 25.2218 543.135 26.599 541.02 27.5217L541.42 28.4383C543.705 27.441 545.504 25.9382 546.8 23.9313L545.96 23.3887ZM540.792 28.239L552.312 47.259L553.168 46.741L541.648 27.721L540.792 28.239ZM552.74 46.5H544.52V47.5H552.74V46.5ZM544.951 46.7462L534.451 28.9262L533.589 29.4338L544.089 47.2538L544.951 46.7462ZM534.02 28.68H526.22V29.68H534.02V28.68ZM525.72 29.18V47H526.72V29.18H525.72ZM526.22 46.5H519.2V47.5H526.22V46.5ZM519.7 46.9993L519.64 4.99928L518.64 5.00071L518.7 47.0007L519.7 46.9993ZM533.9 23.5C536.288 23.5 538.199 22.9655 539.561 21.8231L538.919 21.0569C537.801 21.9945 536.152 22.5 533.9 22.5V23.5ZM539.555 21.8281C540.969 20.6791 541.66 19.0668 541.66 17.06H540.66C540.66 18.8132 540.071 20.1209 538.925 21.0519L539.555 21.8281ZM541.66 17.06C541.66 15.0532 540.969 13.4409 539.555 12.2919L538.925 13.0681C540.071 13.9991 540.66 15.3068 540.66 17.06H541.66ZM539.561 12.2969C538.199 11.1545 536.288 10.62 533.9 10.62V11.62C536.152 11.62 537.801 12.1255 538.919 13.0631L539.561 12.2969ZM533.9 10.62H526.22V11.62H533.9V10.62ZM525.72 11.12V23H526.72V11.12H525.72ZM526.22 23.5H533.9V22.5H526.22V23.5ZM556.426 5V4.5H555.926V5H556.426ZM583.846 5H584.346V4.5H583.846V5ZM583.846 11.12V11.62H584.346V11.12H583.846ZM563.446 11.12V10.62H562.946V11.12H563.446ZM563.446 21.68H562.946V22.18H563.446V21.68ZM579.886 21.68H580.386V21.18H579.886V21.68ZM579.886 27.8V28.3H580.386V27.8H579.886ZM563.446 27.8V27.3H562.946V27.8H563.446ZM563.446 40.82H562.946V41.32H563.446V40.82ZM584.506 40.82H585.006V40.32H584.506V40.82ZM584.506 47V47.5H585.006V47H584.506ZM556.426 47H555.926V47.5H556.426V47ZM556.426 5.5H583.846V4.5H556.426V5.5ZM583.346 5V11.12H584.346V5H583.346ZM583.846 10.62H563.446V11.62H583.846V10.62ZM562.946 11.12V21.68H563.946V11.12H562.946ZM563.446 22.18H579.886V21.18H563.446V22.18ZM579.386 21.68V27.8H580.386V21.68H579.386ZM579.886 27.3H563.446V28.3H579.886V27.3ZM562.946 27.8V40.82H563.946V27.8H562.946ZM563.446 41.32H584.506V40.32H563.446V41.32ZM584.006 40.82V47H585.006V40.82H584.006ZM584.506 46.5H556.426V47.5H584.506V46.5ZM556.926 47V5H555.926V47H556.926ZM589.728 5V4.5H589.228V5H589.728ZM613.728 7.4L613.504 7.84722L613.506 7.84831L613.728 7.4ZM621.408 14.54L620.978 14.7957L620.981 14.7996L621.408 14.54ZM621.408 37.46L620.98 37.2004L620.978 37.2044L621.408 37.46ZM613.728 44.6L613.506 44.1517L613.504 44.1528L613.728 44.6ZM589.728 47H589.228V47.5H589.728V47ZM609.768 39.32L609.975 39.7752L609.982 39.772L609.768 39.32ZM615.048 34.46L614.62 34.2005L614.619 34.2028L615.048 34.46ZM615.048 17.54L614.617 17.7939L614.62 17.7995L615.048 17.54ZM609.768 12.68L609.554 13.1321L609.561 13.1352L609.768 12.68ZM596.628 11.12V10.62H596.128V11.12H596.628ZM596.628 40.82H596.128V41.32H596.628V40.82ZM589.728 5.5H602.928V4.5H589.728V5.5ZM602.928 5.5C606.859 5.5 610.381 6.28584 613.504 7.84721L613.951 6.95279C610.674 5.31415 606.996 4.5 602.928 4.5V5.5ZM613.506 7.84831C616.658 9.40477 619.147 11.7171 620.978 14.7956L621.838 14.2844C619.909 11.0429 617.277 8.59523 613.949 6.95168L613.506 7.84831ZM620.981 14.7996C622.844 17.8663 623.788 21.5921 623.788 26H624.788C624.788 21.4479 623.812 17.5337 621.835 14.2804L620.981 14.7996ZM623.788 26C623.788 30.4079 622.844 34.1337 620.981 37.2004L621.835 37.7196C623.812 34.4663 624.788 30.5521 624.788 26H623.788ZM620.978 37.2044C619.147 40.2829 616.658 42.5952 613.506 44.1517L613.949 45.0483C617.277 43.4048 619.909 40.9571 621.838 37.7156L620.978 37.2044ZM613.504 44.1528C610.381 45.7142 606.859 46.5 602.928 46.5V47.5C606.996 47.5 610.674 46.6858 613.951 45.0472L613.504 44.1528ZM602.928 46.5H589.728V47.5H602.928V46.5ZM590.228 47V5H589.228V47H590.228ZM602.448 41.32C605.191 41.32 607.703 40.8078 609.975 39.7752L609.561 38.8648C607.433 39.8322 605.064 40.32 602.448 40.32V41.32ZM609.982 39.772C612.276 38.6874 614.109 36.9972 615.477 34.7172L614.619 34.2028C613.347 36.3228 611.66 37.8726 609.554 38.868L609.982 39.772ZM615.475 34.7195C616.895 32.3812 617.588 29.4648 617.588 26H616.588C616.588 29.3352 615.921 32.0588 614.62 34.2005L615.475 34.7195ZM617.588 26C617.588 22.5352 616.895 19.6188 615.475 17.2805L614.62 17.7995C615.921 19.9412 616.588 22.6648 616.588 26H617.588ZM615.479 17.2862C614.111 14.9647 612.275 13.2706 609.975 12.2248L609.561 13.1352C611.66 14.0894 613.345 15.6353 614.617 17.7938L615.479 17.2862ZM609.982 12.228C607.708 11.1533 605.194 10.62 602.448 10.62V11.62C605.061 11.62 607.427 12.1267 609.554 13.132L609.982 12.228ZM602.448 10.62H596.628V11.62H602.448V10.62ZM596.128 11.12V40.82H597.128V11.12H596.128ZM596.628 41.32H602.448V40.32H596.628V41.32ZM629.416 5V4.5H628.916V5H629.416ZM656.836 5H657.336V4.5H656.836V5ZM656.836 11.12V11.62H657.336V11.12H656.836ZM636.436 11.12V10.62H635.936V11.12H636.436ZM636.436 21.68H635.936V22.18H636.436V21.68ZM652.876 21.68H653.376V21.18H652.876V21.68ZM652.876 27.8V28.3H653.376V27.8H652.876ZM636.436 27.8V27.3H635.936V27.8H636.436ZM636.436 40.82H635.936V41.32H636.436V40.82ZM657.496 40.82H657.996V40.32H657.496V40.82ZM657.496 47V47.5H657.996V47H657.496ZM629.416 47H628.916V47.5H629.416V47ZM629.416 5.5H656.836V4.5H629.416V5.5ZM656.336 5V11.12H657.336V5H656.336ZM656.836 10.62H636.436V11.62H656.836V10.62ZM635.936 11.12V21.68H636.936V11.12H635.936ZM636.436 22.18H652.876V21.18H636.436V22.18ZM652.376 21.68V27.8H653.376V21.68H652.376ZM652.876 27.3H636.436V28.3H652.876V27.3ZM635.936 27.8V40.82H636.936V27.8H635.936ZM636.436 41.32H657.496V40.32H636.436V41.32ZM656.996 40.82V47H657.996V40.82H656.996ZM657.496 46.5H629.416V47.5H657.496V46.5ZM629.916 47V5H628.916V47H629.916ZM662.718 5V4.5H662.218V5H662.718ZM690.498 5H690.998V4.5H690.498V5ZM690.498 11.12V11.62H690.998V11.12H690.498ZM669.738 11.12V10.62H669.238V11.12H669.738ZM669.738 22.16H669.238V22.66H669.738V22.16ZM686.598 22.16H687.098V21.66H686.598V22.16ZM686.598 28.28V28.78H687.098V28.28H686.598ZM669.738 28.28V27.78H669.238V28.28H669.738ZM669.738 47V47.5H670.238V47H669.738ZM662.718 47H662.218V47.5H662.718V47ZM662.718 5.5H690.498V4.5H662.718V5.5ZM689.998 5V11.12H690.998V5H689.998ZM690.498 10.62H669.738V11.62H690.498V10.62ZM669.238 11.12V22.16H670.238V11.12H669.238ZM669.738 22.66H686.598V21.66H669.738V22.66ZM686.098 22.16V28.28H687.098V22.16H686.098ZM686.598 27.78H669.738V28.78H686.598V27.78ZM669.238 28.28V47H670.238V28.28H669.238ZM669.738 46.5H662.718V47.5H669.738V46.5ZM663.218 47V5H662.218V47H663.218ZM695.492 5V4.5H694.992V5H695.492ZM702.512 5H703.012V4.5H702.512V5ZM702.512 47V47.5H703.012V47H702.512ZM695.492 47H694.992V47.5H695.492V47ZM695.492 5.5H702.512V4.5H695.492V5.5ZM702.012 5V47H703.012V5H702.012ZM702.512 46.5H695.492V47.5H702.512V46.5ZM695.992 47V5H694.992V47H695.992ZM709.575 5V4.5H709.075V5H709.575ZM716.955 5L717.38 4.73552L717.233 4.5H716.955V5ZM736.215 35.9L735.791 36.1645L736.715 37.6474V35.9H736.215ZM736.215 5V4.5H735.715V5H736.215ZM742.935 5H743.435V4.5H742.935V5ZM742.935 47V47.5H743.435V47H742.935ZM735.555 47L735.132 47.2654L735.279 47.5H735.555V47ZM716.235 16.16L716.659 15.8946L715.735 14.42V16.16H716.235ZM716.235 47V47.5H716.735V47H716.235ZM709.575 47H709.075V47.5H709.575V47ZM709.575 5.5H716.955V4.5H709.575V5.5ZM716.531 5.26448L735.791 36.1645L736.64 35.6355L717.38 4.73552L716.531 5.26448ZM736.715 35.9V5H735.715V35.9H736.715ZM736.215 5.5H742.935V4.5H736.215V5.5ZM742.435 5V47H743.435V5H742.435ZM742.935 46.5H735.555V47.5H742.935V46.5ZM735.979 46.7346L716.659 15.8946L715.812 16.4254L735.132 47.2654L735.979 46.7346ZM715.735 16.16V47H716.735V16.16H715.735ZM716.235 46.5H709.575V47.5H716.235V46.5ZM710.075 47V5H709.075V47H710.075ZM750.025 5V4.5H749.525V5H750.025ZM777.445 5H777.945V4.5H777.445V5ZM777.445 11.12V11.62H777.945V11.12H777.445ZM757.045 11.12V10.62H756.545V11.12H757.045ZM757.045 21.68H756.545V22.18H757.045V21.68ZM773.485 21.68H773.985V21.18H773.485V21.68ZM773.485 27.8V28.3H773.985V27.8H773.485ZM757.045 27.8V27.3H756.545V27.8H757.045ZM757.045 40.82H756.545V41.32H757.045V40.82ZM778.105 40.82H778.605V40.32H778.105V40.82ZM778.105 47V47.5H778.605V47H778.105ZM750.025 47H749.525V47.5H750.025V47ZM750.025 5.5H777.445V4.5H750.025V5.5ZM776.945 5V11.12H777.945V5H776.945ZM777.445 10.62H757.045V11.62H777.445V10.62ZM756.545 11.12V21.68H757.545V11.12H756.545ZM757.045 22.18H773.485V21.18H757.045V22.18ZM772.985 21.68V27.8H773.985V21.68H772.985ZM773.485 27.3H757.045V28.3H773.485V27.3ZM756.545 27.8V40.82H757.545V27.8H756.545ZM757.045 41.32H778.105V40.32H757.045V41.32ZM777.605 40.82V47H778.605V40.82H777.605ZM778.105 46.5H750.025V47.5H778.105V46.5ZM750.525 47V5H749.525V47H750.525ZM802.591 45.8L802.374 46.2503L802.591 45.8ZM796.831 41.18L796.429 41.4775L796.436 41.4864L796.831 41.18ZM794.011 34.4L793.864 33.9222L793.449 34.05L793.517 34.4784L794.011 34.4ZM800.431 32.42L800.927 32.3534L800.848 31.7682L800.284 31.9422L800.431 32.42ZM803.731 38.9L803.399 39.2733V39.2733L803.731 38.9ZM816.271 39.74L815.982 39.3324L815.977 39.3361L816.271 39.74ZM817.231 32L816.869 32.3453L816.878 32.3536L817.231 32ZM814.051 29.9L813.851 30.3582L813.863 30.3632L814.051 29.9ZM808.831 28.1L808.689 28.5795L808.692 28.5801L808.831 28.1ZM801.931 25.64L801.724 26.0952L801.931 25.64ZM797.431 22.1L797.036 22.4063L797.04 22.4111L797.431 22.1ZM797.431 9.98L797.03 9.68149L797.029 9.68307L797.431 9.98ZM802.591 5.96L802.391 5.50172L802.388 5.50309L802.591 5.96ZM817.111 5.84L817.3 5.37695L817.111 5.84ZM822.451 9.56L822.075 9.88937L822.084 9.89914L822.451 9.56ZM825.211 15.02L825.401 15.4827L825.78 15.3276L825.702 14.9256L825.211 15.02ZM818.911 17.6L818.421 17.6998L818.542 18.2916L819.101 18.0627L818.911 17.6ZM815.851 12.5L815.54 12.8914L815.545 12.8952L815.851 12.5ZM804.571 12.02L804.285 11.6098L804.279 11.614L804.571 12.02ZM803.731 18.5L803.378 18.8536L803.387 18.8634L803.398 18.8726L803.731 18.5ZM806.551 20.18L806.368 20.6454L806.378 20.6492L806.388 20.6527L806.551 20.18ZM811.231 21.56L811.36 21.0769L811.359 21.0767L811.231 21.56ZM818.611 24.02L818.411 24.4781L818.611 24.02ZM823.591 28.04L823.193 28.3428L823.197 28.347L823.591 28.04ZM823.771 41.66L823.361 41.3745L823.771 41.66ZM818.311 45.98L818.506 46.4404L818.513 46.4375L818.311 45.98ZM810.091 46.98C807.483 46.98 805.058 46.4357 802.809 45.3497L802.374 46.2503C804.764 47.4043 807.339 47.98 810.091 47.98V46.98ZM802.809 45.3497C800.555 44.262 798.697 42.7702 797.226 40.8736L796.436 41.4864C798.005 43.5098 799.987 45.098 802.374 46.2503L802.809 45.3497ZM797.233 40.8826C795.802 38.9488 794.893 36.7644 794.505 34.3216L793.517 34.4784C793.93 37.0756 794.9 39.4112 796.429 41.4774L797.233 40.8826ZM794.159 34.8778L800.579 32.8978L800.284 31.9422L793.864 33.9222L794.159 34.8778ZM799.936 32.4866C800.31 35.2726 801.46 37.5458 803.399 39.2733L804.064 38.5267C802.322 36.9742 801.273 34.9274 800.927 32.3534L799.936 32.4866ZM803.399 39.2733C805.334 40.9983 807.654 41.86 810.331 41.86V40.86C807.889 40.86 805.809 40.0817 804.064 38.5267L803.399 39.2733ZM810.331 41.86C812.88 41.86 814.975 41.3051 816.566 40.1439L815.977 39.3361C814.608 40.3349 812.742 40.86 810.331 40.86V41.86ZM816.561 40.1476C818.207 38.9778 819.051 37.3887 819.051 35.42H818.051C818.051 37.0513 817.375 38.3422 815.982 39.3324L816.561 40.1476ZM819.051 35.42C819.051 33.9055 818.571 32.6323 817.585 31.6464L816.878 32.3536C817.652 33.1277 818.051 34.1345 818.051 35.42H819.051ZM817.593 31.6548C816.698 30.7171 815.576 29.9798 814.239 29.4368L813.863 30.3632C815.086 30.8602 816.085 31.5229 816.87 32.3452L817.593 31.6548ZM814.252 29.4419C812.943 28.8696 811.18 28.2626 808.971 27.6199L808.692 28.5801C810.882 29.2174 812.599 29.8104 813.851 30.3581L814.252 29.4419ZM808.973 27.6205C806.145 26.784 803.869 25.9716 802.138 25.1848L801.724 26.0952C803.513 26.9084 805.838 27.736 808.689 28.5795L808.973 27.6205ZM802.138 25.1848C800.452 24.4186 799.015 23.2889 797.823 21.7889L797.04 22.4111C798.327 24.0311 799.89 25.2614 801.724 26.0952L802.138 25.1848ZM797.826 21.7937C796.672 20.3036 796.071 18.321 796.071 15.8H795.071C795.071 18.479 795.711 20.6964 797.036 22.4063L797.826 21.7937ZM796.071 15.8C796.071 13.7008 796.661 11.8661 797.834 10.2769L797.029 9.68307C795.722 11.4538 795.071 13.4992 795.071 15.8H796.071ZM797.832 10.2785C799.056 8.63434 800.705 7.34567 802.794 6.4169L802.388 5.50309C800.158 6.49433 798.367 7.88566 797.03 9.68149L797.832 10.2785ZM802.791 6.41827C804.92 5.48923 807.311 5.02 809.971 5.02V4.02C807.192 4.02 804.662 4.51077 802.391 5.50173L802.791 6.41827ZM809.971 5.02C812.514 5.02 814.829 5.4501 816.923 6.30304L817.3 5.37695C815.073 4.4699 812.629 4.02 809.971 4.02V5.02ZM816.923 6.30304C819.018 7.15656 820.731 8.35337 822.075 9.88925L822.828 9.23075C821.371 7.56663 819.525 6.28343 817.3 5.37695L816.923 6.30304ZM822.084 9.89914C823.461 11.3908 824.338 13.1261 824.72 15.1144L825.702 14.9256C825.285 12.7539 824.322 10.8492 822.819 9.22086L822.084 9.89914ZM825.022 14.5573L818.722 17.1373L819.101 18.0627L825.401 15.4827L825.022 14.5573ZM819.401 17.5002C818.94 15.2342 817.861 13.4248 816.158 12.1048L815.545 12.8952C817.042 14.0552 818.003 15.6458 818.421 17.6998L819.401 17.5002ZM816.162 12.1086C814.498 10.7859 812.423 10.14 809.971 10.14V11.14C812.24 11.14 814.084 11.7341 815.54 12.8914L816.162 12.1086ZM809.971 10.14C807.63 10.14 805.718 10.6116 804.285 11.6098L804.857 12.4302C806.065 11.5884 807.752 11.14 809.971 11.14V10.14ZM804.279 11.614C802.866 12.6296 802.151 14.0419 802.151 15.8H803.151C803.151 14.3581 803.716 13.2504 804.863 12.426L804.279 11.614ZM802.151 15.8C802.151 17.0037 802.558 18.0337 803.378 18.8536L804.085 18.1464C803.465 17.5263 803.151 16.7563 803.151 15.8H802.151ZM803.398 18.8726C804.209 19.5987 805.203 20.1875 806.368 20.6454L806.734 19.7146C805.66 19.2925 804.773 18.7613 804.065 18.1274L803.398 18.8726ZM806.388 20.6527C807.565 21.0583 809.138 21.5219 811.103 22.0433L811.359 21.0767C809.405 20.5581 807.858 20.1017 806.714 19.7073L806.388 20.6527ZM811.102 22.0431C814.088 22.8394 816.522 23.6518 818.411 24.4781L818.812 23.5619C816.86 22.7082 814.374 21.8806 811.36 21.0769L811.102 22.0431ZM818.411 24.4781C820.245 25.2805 821.839 26.5633 823.193 28.3428L823.989 27.7372C822.543 25.8367 820.817 24.4395 818.812 23.5619L818.411 24.4781ZM823.197 28.347C824.509 30.0339 825.191 32.3342 825.191 35.3H826.191C826.191 32.1858 825.474 29.6461 823.986 27.733L823.197 28.347ZM825.191 35.3C825.191 37.6055 824.578 39.6243 823.361 41.3745L824.182 41.9455C825.524 40.0157 826.191 37.7945 826.191 35.3H825.191ZM823.361 41.3745C822.141 43.1282 820.398 44.5138 818.11 45.5225L818.513 46.4375C820.944 45.3662 822.842 43.8718 824.182 41.9455L823.361 41.3745ZM818.116 45.5196C815.83 46.4885 813.158 46.98 810.091 46.98V47.98C813.264 47.98 816.073 47.4715 818.506 46.4404L818.116 45.5196ZM864.553 5H865.053V4.5H864.553V5ZM864.553 47V47.5H865.053V47H864.553ZM857.473 47H856.973V47.5H857.473V47ZM857.473 28.16H857.973V27.66H857.473V28.16ZM837.673 28.16V27.66H837.173V28.16H837.673ZM837.673 47V47.5H838.173V47H837.673ZM830.653 47H830.153V47.5H830.653V47ZM830.653 5V4.5H830.153V5H830.653ZM837.673 5H838.173V4.5H837.673V5ZM837.673 21.98H837.173V22.48H837.673V21.98ZM857.473 21.98V22.48H857.973V21.98H857.473ZM857.473 5V4.5H856.973V5H857.473ZM864.053 5V47H865.053V5H864.053ZM864.553 46.5H857.473V47.5H864.553V46.5ZM857.973 47V28.16H856.973V47H857.973ZM857.473 27.66H837.673V28.66H857.473V27.66ZM837.173 28.16V47H838.173V28.16H837.173ZM837.673 46.5H830.653V47.5H837.673V46.5ZM831.153 47V5H830.153V47H831.153ZM830.653 5.5H837.673V4.5H830.653V5.5ZM837.173 5V21.98H838.173V5H837.173ZM837.673 22.48H857.473V21.48H837.673V22.48ZM857.973 21.98V5H856.973V21.98H857.973ZM857.473 5.5H864.553V4.5H857.473V5.5ZM879.971 44.72L879.715 45.1497L879.722 45.1535L879.971 44.72ZM872.471 37.04L872.032 37.2806L872.036 37.2869L872.471 37.04ZM872.471 15.02L872.035 14.7754L872.034 14.7772L872.471 15.02ZM879.971 7.34L880.222 7.77209L880.224 7.7711L879.971 7.34ZM901.511 7.34L901.255 7.76975L901.262 7.77345L901.511 7.34ZM909.011 15.02L908.572 15.2606L908.576 15.2669L909.011 15.02ZM909.011 37.04L908.575 36.7954L908.574 36.7972L909.011 37.04ZM901.511 44.72L901.762 45.1521L901.764 45.1511L901.511 44.72ZM883.571 39.32L883.303 39.7422L883.307 39.7444L883.571 39.32ZM897.911 39.32L897.646 38.8955L897.643 38.8978L897.911 39.32ZM902.891 33.86L903.335 34.0897L902.891 33.86ZM902.891 18.14L902.445 18.3666L902.447 18.3697L902.891 18.14ZM897.911 12.62L897.643 13.0422L897.647 13.0444L897.911 12.62ZM883.571 12.62L883.306 12.1955L883.303 12.1978L883.571 12.62ZM878.651 18.14L879.095 18.3697L879.096 18.3666L878.651 18.14ZM890.771 46.98C886.851 46.98 883.338 46.0793 880.22 44.2865L879.722 45.1535C883.004 47.0407 886.691 47.98 890.771 47.98V46.98ZM880.226 44.2903C877.142 42.4553 874.703 39.9587 872.906 36.7931L872.036 37.2869C873.918 40.6013 876.48 43.2247 879.715 45.1497L880.226 44.2903ZM872.909 36.7994C871.153 33.5997 870.271 30.0037 870.271 26H869.271C869.271 30.1563 870.188 33.9203 872.032 37.2805L872.909 36.7994ZM870.271 26C870.271 21.9962 871.153 18.4212 872.908 15.2628L872.034 14.7772C870.188 18.0988 869.271 21.8438 869.271 26H870.271ZM872.907 15.2646C874.704 12.0601 877.142 9.56586 880.222 7.77209L879.719 6.90791C876.48 8.79414 873.917 11.4199 872.035 14.7754L872.907 15.2646ZM880.224 7.7711C883.341 5.93971 886.853 5.02 890.771 5.02V4.02C886.689 4.02 883 4.98029 879.717 6.90889L880.224 7.7711ZM890.771 5.02C894.689 5.02 898.179 5.93972 901.255 7.7697L901.766 6.9103C898.522 4.98028 894.853 4.02 890.771 4.02V5.02ZM901.262 7.77345C904.381 9.56707 906.816 12.0598 908.572 15.2605L909.449 14.7794C907.606 11.4202 905.041 8.79293 901.76 6.90655L901.262 7.77345ZM908.576 15.2669C910.369 18.4246 911.271 21.9981 911.271 26H912.271C912.271 21.8419 911.332 18.0954 909.446 14.7731L908.576 15.2669ZM911.271 26C911.271 30.0018 910.369 33.5964 908.575 36.7954L909.447 37.2846C911.332 33.9236 912.271 30.1582 912.271 26H911.271ZM908.574 36.7972C906.817 39.959 904.381 42.4541 901.258 44.2889L901.764 45.1511C905.041 43.2259 907.604 40.601 909.448 37.2828L908.574 36.7972ZM901.259 44.2879C898.183 46.0793 894.691 46.98 890.771 46.98V47.98C894.851 47.98 898.519 47.0407 901.762 45.1521L901.259 44.2879ZM876.351 26C876.351 28.9904 876.966 31.6907 878.207 34.0897L879.095 33.6303C877.936 31.3893 877.351 28.8496 877.351 26H876.351ZM878.207 34.0897C879.445 36.4834 881.144 38.3719 883.303 39.7422L883.839 38.8978C881.838 37.6281 880.257 35.8766 879.095 33.6303L878.207 34.0897ZM883.307 39.7444C885.512 41.1175 888.004 41.8 890.771 41.8V40.8C888.177 40.8 885.87 40.1625 883.835 38.8955L883.307 39.7444ZM890.771 41.8C893.537 41.8 896.012 41.1175 898.179 39.7422L897.643 38.8978C895.65 40.1625 893.365 40.8 890.771 40.8V41.8ZM898.175 39.7444C900.375 38.3747 902.096 36.4858 903.335 34.0897L902.447 33.6303C901.286 35.8742 899.687 37.6253 897.647 38.8955L898.175 39.7444ZM903.335 34.0897C904.576 31.6907 905.191 28.9904 905.191 26H904.191C904.191 28.8496 903.606 31.3893 902.447 33.6303L903.335 34.0897ZM905.191 26C905.191 23.0096 904.576 20.3093 903.335 17.9103L902.447 18.3697C903.606 20.6107 904.191 23.1504 904.191 26H905.191ZM903.336 17.9134C902.098 15.4772 900.377 13.5667 898.175 12.1956L897.647 13.0444C899.684 14.3133 901.284 16.0828 902.445 18.3666L903.336 17.9134ZM898.179 12.1978C896.012 10.8225 893.537 10.14 890.771 10.14V11.14C893.365 11.14 895.65 11.7775 897.643 13.0422L898.179 12.1978ZM890.771 10.14C888.004 10.14 885.512 10.8225 883.307 12.1956L883.835 13.0444C885.87 11.7775 888.177 11.14 890.771 11.14V10.14ZM883.303 12.1978C881.141 13.5695 879.443 15.4796 878.205 17.9134L879.096 18.3666C880.259 16.0804 881.84 14.3105 883.839 13.0422L883.303 12.1978ZM878.207 17.9103C876.966 20.3093 876.351 23.0096 876.351 26H877.351C877.351 23.1504 877.936 20.6107 879.095 18.3697L878.207 17.9103ZM917.003 5V4.5H916.503V5H917.003ZM940.823 6.56L940.599 7.00727L940.606 7.01062L940.823 6.56ZM945.623 10.94L945.191 11.1919L945.193 11.1959L945.623 10.94ZM945.623 24.2L946.052 24.4559L946.055 24.4519L945.623 24.2ZM940.823 28.58L941.039 29.0307L941.046 29.0272L940.823 28.58ZM924.083 30.08V29.58H923.583V30.08H924.083ZM924.083 47V47.5H924.583V47H924.083ZM917.003 47H916.503V47.5H917.003V47ZM938.243 22.28L938.578 22.6511L938.579 22.6505L938.243 22.28ZM938.243 12.86L937.901 13.2251L937.907 13.2308L937.914 13.2363L938.243 12.86ZM924.083 11.12V10.62H923.583V11.12H924.083ZM924.083 23.96H923.583V24.46H924.083V23.96ZM917.003 5.5H933.563V4.5H917.003V5.5ZM933.563 5.5C936.26 5.5 938.6 6.00784 940.599 7.00721L941.046 6.11278C938.885 5.03216 936.386 4.5 933.563 4.5V5.5ZM940.606 7.01062C942.6 7.96912 944.123 9.3616 945.191 11.1919L946.055 10.6881C944.882 8.6784 943.206 7.15087 941.039 6.10937L940.606 7.01062ZM945.193 11.1959C946.261 12.9874 946.803 15.0962 946.803 17.54H947.803C947.803 14.9438 947.225 12.6526 946.052 10.6841L945.193 11.1959ZM946.803 17.54C946.803 19.9835 946.261 22.1143 945.191 23.9481L946.055 24.4519C947.225 22.4457 947.803 20.1365 947.803 17.54H946.803ZM945.193 23.9441C944.125 25.7367 942.599 27.1327 940.599 28.1328L941.046 29.0272C943.206 27.9473 944.88 26.4233 946.052 24.4559L945.193 23.9441ZM940.606 28.1294C938.606 29.0911 936.262 29.58 933.563 29.58V30.58C936.383 30.58 938.88 30.0689 941.039 29.0306L940.606 28.1294ZM933.563 29.58H924.083V30.58H933.563V29.58ZM923.583 30.08V47H924.583V30.08H923.583ZM924.083 46.5H917.003V47.5H924.083V46.5ZM917.503 47V5H916.503V47H917.503ZM933.083 24.46C935.367 24.46 937.22 23.8775 938.578 22.651L937.908 21.9089C936.786 22.9225 935.199 23.46 933.083 23.46V24.46ZM938.579 22.6505C939.98 21.3804 940.663 19.6567 940.663 17.54H939.663C939.663 19.4233 939.066 20.8596 937.907 21.9095L938.579 22.6505ZM940.663 17.54C940.663 15.4237 939.98 13.7156 938.572 12.4837L937.914 13.2363C939.066 14.2444 939.663 15.6563 939.663 17.54H940.663ZM938.584 12.4949C937.227 11.2249 935.371 10.62 933.083 10.62V11.62C935.195 11.62 936.779 12.1751 937.901 13.2251L938.584 12.4949ZM933.083 10.62H924.083V11.62H933.083V10.62ZM923.583 11.12V23.96H924.583V11.12H923.583ZM924.083 24.46H933.083V23.46H924.083V24.46ZM951.535 5V4.5H951.035V5H951.535ZM975.355 6.56L975.131 7.00727L975.138 7.01062L975.355 6.56ZM980.155 10.94L979.723 11.1919L979.725 11.1959L980.155 10.94ZM980.155 24.2L980.585 24.4559L980.587 24.4519L980.155 24.2ZM975.355 28.58L975.572 29.0307L975.579 29.0272L975.355 28.58ZM958.615 30.08V29.58H958.115V30.08H958.615ZM958.615 47V47.5H959.115V47H958.615ZM951.535 47H951.035V47.5H951.535V47ZM972.775 22.28L973.11 22.6511L973.111 22.6505L972.775 22.28ZM972.775 12.86L972.433 13.2251L972.439 13.2308L972.446 13.2363L972.775 12.86ZM958.615 11.12V10.62H958.115V11.12H958.615ZM958.615 23.96H958.115V24.46H958.615V23.96ZM951.535 5.5H968.095V4.5H951.535V5.5ZM968.095 5.5C970.792 5.5 973.133 6.00784 975.131 7.00721L975.579 6.11278C973.417 5.03216 970.918 4.5 968.095 4.5V5.5ZM975.138 7.01062C977.132 7.96912 978.655 9.3616 979.723 11.1919L980.587 10.6881C979.415 8.6784 977.738 7.15087 975.572 6.10937L975.138 7.01062ZM979.725 11.1959C980.793 12.9874 981.335 15.0962 981.335 17.54H982.335C982.335 14.9438 981.757 12.6526 980.585 10.6841L979.725 11.1959ZM981.335 17.54C981.335 19.9835 980.793 22.1143 979.723 23.9481L980.587 24.4519C981.757 22.4457 982.335 20.1365 982.335 17.54H981.335ZM979.725 23.9441C978.658 25.7367 977.131 27.1327 975.131 28.1328L975.579 29.0272C977.739 27.9473 979.412 26.4233 980.585 24.4559L979.725 23.9441ZM975.138 28.1294C973.138 29.0911 970.794 29.58 968.095 29.58V30.58C970.915 30.58 973.412 30.0689 975.572 29.0306L975.138 28.1294ZM968.095 29.58H958.615V30.58H968.095V29.58ZM958.115 30.08V47H959.115V30.08H958.115ZM958.615 46.5H951.535V47.5H958.615V46.5ZM952.035 47V5H951.035V47H952.035ZM967.615 24.46C969.899 24.46 971.752 23.8775 973.11 22.651L972.44 21.9089C971.318 22.9225 969.731 23.46 967.615 23.46V24.46ZM973.111 22.6505C974.512 21.3804 975.195 19.6567 975.195 17.54H974.195C974.195 19.4233 973.598 20.8596 972.439 21.9095L973.111 22.6505ZM975.195 17.54C975.195 15.4237 974.512 13.7156 973.104 12.4837L972.446 13.2363C973.598 14.2444 974.195 15.6563 974.195 17.54H975.195ZM973.117 12.4949C971.759 11.2249 969.903 10.62 967.615 10.62V11.62C969.727 11.62 971.311 12.1751 972.433 13.2251L973.117 12.4949ZM967.615 10.62H958.615V11.62H967.615V10.62ZM958.115 11.12V23.96H959.115V11.12H958.115ZM958.615 24.46H967.615V23.46H958.615V24.46ZM986.067 5V4.5H985.567V5H986.067ZM993.087 5H993.587V4.5H993.087V5ZM993.087 47V47.5H993.587V47H993.087ZM986.067 47H985.567V47.5H986.067V47ZM986.067 5.5H993.087V4.5H986.067V5.5ZM992.587 5V47H993.587V5H992.587ZM993.087 46.5H986.067V47.5H993.087V46.5ZM986.567 47V5H985.567V47H986.567ZM1000.15 5V4.5H999.65V5H1000.15ZM1007.53 5L1007.95 4.73552L1007.81 4.5H1007.53V5ZM1026.79 35.9L1026.37 36.1645L1027.29 37.6474V35.9H1026.79ZM1026.79 5V4.5H1026.29V5H1026.79ZM1033.51 5H1034.01V4.5H1033.51V5ZM1033.51 47V47.5H1034.01V47H1033.51ZM1026.13 47L1025.71 47.2654L1025.85 47.5H1026.13V47ZM1006.81 16.16L1007.23 15.8946L1006.31 14.42V16.16H1006.81ZM1006.81 47V47.5H1007.31V47H1006.81ZM1000.15 47H999.65V47.5H1000.15V47ZM1000.15 5.5H1007.53V4.5H1000.15V5.5ZM1007.11 5.26448L1026.37 36.1645L1027.21 35.6355L1007.95 4.73552L1007.11 5.26448ZM1027.29 35.9V5H1026.29V35.9H1027.29ZM1026.79 5.5H1033.51V4.5H1026.79V5.5ZM1033.01 5V47H1034.01V5H1033.01ZM1033.51 46.5H1026.13V47.5H1033.51V46.5ZM1026.55 46.7346L1007.23 15.8946L1006.39 16.4254L1025.71 47.2654L1026.55 46.7346ZM1006.31 16.16V47H1007.31V16.16H1006.31ZM1006.81 46.5H1000.15V47.5H1006.81V46.5ZM1000.65 47V5H999.65V47H1000.65ZM1049 45.02L1048.77 45.4613L1048.77 45.4626L1049 45.02ZM1041.56 37.76L1041.13 38.0109L1041.13 38.0133L1041.56 37.76ZM1041.62 14.3L1042.05 14.5573L1042.05 14.5549L1041.62 14.3ZM1049.24 6.98L1049.01 6.5362L1049.24 6.98ZM1077.98 18.2L1078.08 18.6896L1078.56 18.5901L1078.47 18.1073L1077.98 18.2ZM1071.02 19.64L1070.53 19.7394L1070.63 20.2313L1071.12 20.1296L1071.02 19.64ZM1067.06 13.1L1066.75 13.4898L1066.76 13.4963L1067.06 13.1ZM1052.36 12.44L1052.11 12.0069L1052.11 12.009L1052.36 12.44ZM1047.56 17.72L1047.11 17.4964L1047.11 17.5026L1047.56 17.72ZM1047.56 34.28L1047.11 34.4974L1047.11 34.5067L1047.56 34.28ZM1052.36 39.5L1052.11 39.931L1052.36 39.5ZM1067.72 38.42L1068.06 38.7906L1068.06 38.7903L1067.72 38.42ZM1071.26 30.68L1071.76 30.7112L1071.79 30.18H1071.26V30.68ZM1057.82 30.68H1057.32V31.18H1057.82V30.68ZM1057.82 24.86V24.36H1057.32V24.86H1057.82ZM1077.8 24.86H1078.3V24.36H1077.8V24.86ZM1077.8 47V47.5H1078.3V47H1077.8ZM1071.44 47H1070.94V47.5H1071.44V47ZM1071.44 41.36H1071.94L1071 41.1287L1071.44 41.36ZM1066.64 45.8L1066.42 45.3528L1066.64 45.8ZM1059.14 46.98C1055.58 46.98 1052.28 46.1784 1049.23 44.5774L1048.77 45.4626C1051.96 47.1416 1055.42 47.98 1059.14 47.98V46.98ZM1049.24 44.5787C1046.24 42.9848 1043.83 40.6324 1041.99 37.5067L1041.13 38.0133C1043.05 41.2876 1045.6 43.7752 1048.77 45.4613L1049.24 44.5787ZM1041.99 37.5091C1040.17 34.3609 1039.24 30.5318 1039.24 26H1038.24C1038.24 30.6682 1039.19 34.6791 1041.13 38.0109L1041.99 37.5091ZM1039.24 26C1039.24 21.4696 1040.19 17.6633 1042.05 14.5572L1041.19 14.0428C1039.22 17.3367 1038.24 21.3304 1038.24 26H1039.24ZM1042.05 14.5549C1043.93 11.3904 1046.4 9.01821 1049.47 7.42379L1049.01 6.5362C1045.76 8.22179 1043.15 10.7296 1041.19 14.0451L1042.05 14.5549ZM1049.47 7.42379C1052.56 5.82199 1055.9 5.02 1059.5 5.02V4.02C1055.74 4.02 1052.24 4.85801 1049.01 6.5362L1049.47 7.42379ZM1059.5 5.02C1064.29 5.02 1068.29 6.21699 1071.5 8.58289L1072.1 7.77711C1068.68 5.26301 1064.47 4.02 1059.5 4.02V5.02ZM1071.5 8.58289C1074.72 10.9441 1076.71 14.1706 1077.49 18.2927L1078.47 18.1073C1077.65 13.7494 1075.52 10.2959 1072.1 7.77711L1071.5 8.58289ZM1077.88 17.7104L1070.92 19.1504L1071.12 20.1296L1078.08 18.6896L1077.88 17.7104ZM1071.51 19.5406C1070.93 16.6719 1069.55 14.3827 1067.37 12.7037L1066.76 13.4963C1068.73 15.0173 1069.99 17.0881 1070.53 19.7394L1071.51 19.5406ZM1067.37 12.7103C1065.23 10.9877 1062.58 10.14 1059.44 10.14V11.14C1062.39 11.14 1064.81 11.9323 1066.75 13.4897L1067.37 12.7103ZM1059.44 10.14C1056.72 10.14 1054.27 10.7588 1052.11 12.0069L1052.61 12.8731C1054.61 11.7212 1056.88 11.14 1059.44 11.14V10.14ZM1052.11 12.009C1049.98 13.2627 1048.31 15.0986 1047.11 17.4964L1048.01 17.9436C1049.13 15.7014 1050.66 14.0173 1052.61 12.871L1052.11 12.009ZM1047.11 17.5026C1045.95 19.9048 1045.38 22.7425 1045.38 26H1046.38C1046.38 22.8575 1046.93 20.1752 1048.01 17.9374L1047.11 17.5026ZM1045.38 26C1045.38 29.2575 1045.95 32.0952 1047.11 34.4974L1048.01 34.0626C1046.93 31.8248 1046.38 29.1425 1046.38 26H1045.38ZM1047.11 34.5067C1048.31 36.8646 1049.98 38.6787 1052.11 39.931L1052.61 39.069C1050.66 37.9213 1049.13 36.2554 1048.01 34.0533L1047.11 34.5067ZM1052.11 39.931C1054.23 41.1812 1056.66 41.8 1059.38 41.8V40.8C1056.82 40.8 1054.57 40.2188 1052.61 39.069L1052.11 39.931ZM1059.38 41.8C1062.92 41.8 1065.83 40.8101 1068.06 38.7906L1067.38 38.0494C1065.37 39.8699 1062.72 40.8 1059.38 40.8V41.8ZM1068.06 38.7903C1070.32 36.7337 1071.55 34.027 1071.76 30.7112L1070.76 30.6488C1070.57 33.733 1069.44 36.1863 1067.38 38.0497L1068.06 38.7903ZM1071.26 30.18H1057.82V31.18H1071.26V30.18ZM1058.32 30.68V24.86H1057.32V30.68H1058.32ZM1057.82 25.36H1077.8V24.36H1057.82V25.36ZM1077.3 24.86V47H1078.3V24.86H1077.3ZM1077.8 46.5H1071.44V47.5H1077.8V46.5ZM1071.94 47V41.36H1070.94V47H1071.94ZM1071 41.1287C1070.1 42.8575 1068.58 44.2699 1066.42 45.3528L1066.86 46.2472C1069.18 45.0901 1070.87 43.5425 1071.88 41.5913L1071 41.1287ZM1066.42 45.3528C1064.25 46.4346 1061.83 46.98 1059.14 46.98V47.98C1061.97 47.98 1064.55 47.4054 1066.86 46.2472L1066.42 45.3528Z" fill="#63768D"/>
<path d="M1110.14 5V4.5H1109.64L1109.64 5.00071L1110.14 5ZM1137.38 23.66L1136.96 23.3826L1136.96 23.3887L1137.38 23.66ZM1132.22 27.98L1132.02 27.5217L1131.5 27.7503L1131.79 28.239L1132.22 27.98ZM1143.74 47V47.5H1144.63L1144.17 46.741L1143.74 47ZM1135.52 47L1135.09 47.2538L1135.23 47.5H1135.52V47ZM1125.02 29.18L1125.45 28.9262L1125.31 28.68H1125.02V29.18ZM1117.22 29.18V28.68H1116.72V29.18H1117.22ZM1117.22 47V47.5H1117.72V47H1117.22ZM1110.2 47L1109.7 47.0007L1109.7 47.5H1110.2V47ZM1130.24 21.44L1129.92 21.0519L1129.92 21.0569L1130.24 21.44ZM1130.24 12.68L1129.92 13.0631L1129.92 13.0681L1130.24 12.68ZM1117.22 11.12V10.62H1116.72V11.12H1117.22ZM1117.22 23H1116.72V23.5H1117.22V23ZM1110.14 5.5H1125.92V4.5H1110.14V5.5ZM1125.92 5.5C1129.87 5.5 1132.98 6.5721 1135.31 8.67134L1135.97 7.92865C1133.42 5.62789 1130.05 4.5 1125.92 4.5V5.5ZM1135.31 8.67134C1137.63 10.7657 1138.8 13.5445 1138.8 17.06H1139.8C1139.8 13.2955 1138.53 10.2343 1135.97 7.92865L1135.31 8.67134ZM1138.8 17.06C1138.8 19.449 1138.19 21.551 1136.96 23.3826L1137.8 23.9373C1139.13 21.929 1139.8 19.631 1139.8 17.06H1138.8ZM1136.96 23.3887C1135.78 25.2218 1134.13 26.599 1132.02 27.5217L1132.42 28.4383C1134.71 27.441 1136.5 25.9382 1137.8 23.9313L1136.96 23.3887ZM1131.79 28.239L1143.31 47.259L1144.17 46.741L1132.65 27.721L1131.79 28.239ZM1143.74 46.5H1135.52V47.5H1143.74V46.5ZM1135.95 46.7462L1125.45 28.9262L1124.59 29.4338L1135.09 47.2538L1135.95 46.7462ZM1125.02 28.68H1117.22V29.68H1125.02V28.68ZM1116.72 29.18V47H1117.72V29.18H1116.72ZM1117.22 46.5H1110.2V47.5H1117.22V46.5ZM1110.7 46.9993L1110.64 4.99928L1109.64 5.00071L1109.7 47.0007L1110.7 46.9993ZM1124.9 23.5C1127.29 23.5 1129.2 22.9655 1130.56 21.8231L1129.92 21.0569C1128.8 21.9945 1127.15 22.5 1124.9 22.5V23.5ZM1130.56 21.8281C1131.97 20.6791 1132.66 19.0668 1132.66 17.06H1131.66C1131.66 18.8132 1131.07 20.1209 1129.92 21.0519L1130.56 21.8281ZM1132.66 17.06C1132.66 15.0532 1131.97 13.4409 1130.56 12.2919L1129.92 13.0681C1131.07 13.9991 1131.66 15.3068 1131.66 17.06H1132.66ZM1130.56 12.2969C1129.2 11.1545 1127.29 10.62 1124.9 10.62V11.62C1127.15 11.62 1128.8 12.1255 1129.92 13.0631L1130.56 12.2969ZM1124.9 10.62H1117.22V11.62H1124.9V10.62ZM1116.72 11.12V23H1117.72V11.12H1116.72ZM1117.22 23.5H1124.9V22.5H1117.22V23.5ZM1147.43 5V4.5H1146.93V5H1147.43ZM1174.85 5H1175.35V4.5H1174.85V5ZM1174.85 11.12V11.62H1175.35V11.12H1174.85ZM1154.45 11.12V10.62H1153.95V11.12H1154.45ZM1154.45 21.68H1153.95V22.18H1154.45V21.68ZM1170.89 21.68H1171.39V21.18H1170.89V21.68ZM1170.89 27.8V28.3H1171.39V27.8H1170.89ZM1154.45 27.8V27.3H1153.95V27.8H1154.45ZM1154.45 40.82H1153.95V41.32H1154.45V40.82ZM1175.51 40.82H1176.01V40.32H1175.51V40.82ZM1175.51 47V47.5H1176.01V47H1175.51ZM1147.43 47H1146.93V47.5H1147.43V47ZM1147.43 5.5H1174.85V4.5H1147.43V5.5ZM1174.35 5V11.12H1175.35V5H1174.35ZM1174.85 10.62H1154.45V11.62H1174.85V10.62ZM1153.95 11.12V21.68H1154.95V11.12H1153.95ZM1154.45 22.18H1170.89V21.18H1154.45V22.18ZM1170.39 21.68V27.8H1171.39V21.68H1170.39ZM1170.89 27.3H1154.45V28.3H1170.89V27.3ZM1153.95 27.8V40.82H1154.95V27.8H1153.95ZM1154.45 41.32H1175.51V40.32H1154.45V41.32ZM1175.01 40.82V47H1176.01V40.82H1175.01ZM1175.51 46.5H1147.43V47.5H1175.51V46.5ZM1147.93 47V5H1146.93V47H1147.93ZM1180.73 5V4.5H1180.23V5H1180.73ZM1204.73 7.4L1204.5 7.84722L1204.51 7.84831L1204.73 7.4ZM1212.41 14.54L1211.98 14.7957L1211.98 14.7996L1212.41 14.54ZM1212.41 37.46L1211.98 37.2004L1211.98 37.2044L1212.41 37.46ZM1204.73 44.6L1204.51 44.1517L1204.5 44.1528L1204.73 44.6ZM1180.73 47H1180.23V47.5H1180.73V47ZM1200.77 39.32L1200.97 39.7752L1200.98 39.772L1200.77 39.32ZM1206.05 34.46L1205.62 34.2005L1205.62 34.2028L1206.05 34.46ZM1206.05 17.54L1205.62 17.7939L1205.62 17.7995L1206.05 17.54ZM1200.77 12.68L1200.55 13.1321L1200.56 13.1352L1200.77 12.68ZM1187.63 11.12V10.62H1187.13V11.12H1187.63ZM1187.63 40.82H1187.13V41.32H1187.63V40.82ZM1180.73 5.5H1193.93V4.5H1180.73V5.5ZM1193.93 5.5C1197.86 5.5 1201.38 6.28584 1204.5 7.84721L1204.95 6.95279C1201.67 5.31415 1198 4.5 1193.93 4.5V5.5ZM1204.51 7.84831C1207.66 9.40477 1210.15 11.7171 1211.98 14.7956L1212.84 14.2844C1210.91 11.0429 1208.28 8.59523 1204.95 6.95168L1204.51 7.84831ZM1211.98 14.7996C1213.84 17.8663 1214.79 21.5921 1214.79 26H1215.79C1215.79 21.4479 1214.81 17.5337 1212.84 14.2804L1211.98 14.7996ZM1214.79 26C1214.79 30.4079 1213.84 34.1337 1211.98 37.2004L1212.84 37.7196C1214.81 34.4663 1215.79 30.5521 1215.79 26H1214.79ZM1211.98 37.2044C1210.15 40.2829 1207.66 42.5952 1204.51 44.1517L1204.95 45.0483C1208.28 43.4048 1210.91 40.9571 1212.84 37.7156L1211.98 37.2044ZM1204.5 44.1528C1201.38 45.7142 1197.86 46.5 1193.93 46.5V47.5C1198 47.5 1201.67 46.6858 1204.95 45.0472L1204.5 44.1528ZM1193.93 46.5H1180.73V47.5H1193.93V46.5ZM1181.23 47V5H1180.23V47H1181.23ZM1193.45 41.32C1196.19 41.32 1198.7 40.8078 1200.97 39.7752L1200.56 38.8648C1198.43 39.8322 1196.06 40.32 1193.45 40.32V41.32ZM1200.98 39.772C1203.28 38.6874 1205.11 36.9972 1206.48 34.7172L1205.62 34.2028C1204.35 36.3228 1202.66 37.8726 1200.55 38.868L1200.98 39.772ZM1206.48 34.7195C1207.89 32.3812 1208.59 29.4648 1208.59 26H1207.59C1207.59 29.3352 1206.92 32.0588 1205.62 34.2005L1206.48 34.7195ZM1208.59 26C1208.59 22.5352 1207.89 19.6188 1206.48 17.2805L1205.62 17.7995C1206.92 19.9412 1207.59 22.6648 1207.59 26H1208.59ZM1206.48 17.2862C1205.11 14.9647 1203.28 13.2706 1200.97 12.2248L1200.56 13.1352C1202.66 14.0894 1204.35 15.6353 1205.62 17.7938L1206.48 17.2862ZM1200.98 12.228C1198.71 11.1533 1196.19 10.62 1193.45 10.62V11.62C1196.06 11.62 1198.43 12.1267 1200.55 13.132L1200.98 12.228ZM1193.45 10.62H1187.63V11.62H1193.45V10.62ZM1187.13 11.12V40.82H1188.13V11.12H1187.13ZM1187.63 41.32H1193.45V40.32H1187.63V41.32ZM1220.42 5V4.5H1219.92V5H1220.42ZM1247.84 5H1248.34V4.5H1247.84V5ZM1247.84 11.12V11.62H1248.34V11.12H1247.84ZM1227.44 11.12V10.62H1226.94V11.12H1227.44ZM1227.44 21.68H1226.94V22.18H1227.44V21.68ZM1243.88 21.68H1244.38V21.18H1243.88V21.68ZM1243.88 27.8V28.3H1244.38V27.8H1243.88ZM1227.44 27.8V27.3H1226.94V27.8H1227.44ZM1227.44 40.82H1226.94V41.32H1227.44V40.82ZM1248.5 40.82H1249V40.32H1248.5V40.82ZM1248.5 47V47.5H1249V47H1248.5ZM1220.42 47H1219.92V47.5H1220.42V47ZM1220.42 5.5H1247.84V4.5H1220.42V5.5ZM1247.34 5V11.12H1248.34V5H1247.34ZM1247.84 10.62H1227.44V11.62H1247.84V10.62ZM1226.94 11.12V21.68H1227.94V11.12H1226.94ZM1227.44 22.18H1243.88V21.18H1227.44V22.18ZM1243.38 21.68V27.8H1244.38V21.68H1243.38ZM1243.88 27.3H1227.44V28.3H1243.88V27.3ZM1226.94 27.8V40.82H1227.94V27.8H1226.94ZM1227.44 41.32H1248.5V40.32H1227.44V41.32ZM1248 40.82V47H1249V40.82H1248ZM1248.5 46.5H1220.42V47.5H1248.5V46.5ZM1220.92 47V5H1219.92V47H1220.92ZM1253.72 5V4.5H1253.22V5H1253.72ZM1281.5 5H1282V4.5H1281.5V5ZM1281.5 11.12V11.62H1282V11.12H1281.5ZM1260.74 11.12V10.62H1260.24V11.12H1260.74ZM1260.74 22.16H1260.24V22.66H1260.74V22.16ZM1277.6 22.16H1278.1V21.66H1277.6V22.16ZM1277.6 28.28V28.78H1278.1V28.28H1277.6ZM1260.74 28.28V27.78H1260.24V28.28H1260.74ZM1260.74 47V47.5H1261.24V47H1260.74ZM1253.72 47H1253.22V47.5H1253.72V47ZM1253.72 5.5H1281.5V4.5H1253.72V5.5ZM1281 5V11.12H1282V5H1281ZM1281.5 10.62H1260.74V11.62H1281.5V10.62ZM1260.24 11.12V22.16H1261.24V11.12H1260.24ZM1260.74 22.66H1277.6V21.66H1260.74V22.66ZM1277.1 22.16V28.28H1278.1V22.16H1277.1ZM1277.6 27.78H1260.74V28.78H1277.6V27.78ZM1260.24 28.28V47H1261.24V28.28H1260.24ZM1260.74 46.5H1253.72V47.5H1260.74V46.5ZM1254.22 47V5H1253.22V47H1254.22ZM1286.49 5V4.5H1285.99V5H1286.49ZM1293.51 5H1294.01V4.5H1293.51V5ZM1293.51 47V47.5H1294.01V47H1293.51ZM1286.49 47H1285.99V47.5H1286.49V47ZM1286.49 5.5H1293.51V4.5H1286.49V5.5ZM1293.01 5V47H1294.01V5H1293.01ZM1293.51 46.5H1286.49V47.5H1293.51V46.5ZM1286.99 47V5H1285.99V47H1286.99ZM1300.58 5V4.5H1300.08V5H1300.58ZM1307.96 5L1308.38 4.73552L1308.23 4.5H1307.96V5ZM1327.22 35.9L1326.79 36.1645L1327.72 37.6474V35.9H1327.22ZM1327.22 5V4.5H1326.72V5H1327.22ZM1333.94 5H1334.44V4.5H1333.94V5ZM1333.94 47V47.5H1334.44V47H1333.94ZM1326.56 47L1326.13 47.2654L1326.28 47.5H1326.56V47ZM1307.24 16.16L1307.66 15.8946L1306.74 14.42V16.16H1307.24ZM1307.24 47V47.5H1307.74V47H1307.24ZM1300.58 47H1300.08V47.5H1300.58V47ZM1300.58 5.5H1307.96V4.5H1300.58V5.5ZM1307.53 5.26448L1326.79 36.1645L1327.64 35.6355L1308.38 4.73552L1307.53 5.26448ZM1327.72 35.9V5H1326.72V35.9H1327.72ZM1327.22 5.5H1333.94V4.5H1327.22V5.5ZM1333.44 5V47H1334.44V5H1333.44ZM1333.94 46.5H1326.56V47.5H1333.94V46.5ZM1326.98 46.7346L1307.66 15.8946L1306.81 16.4254L1326.13 47.2654L1326.98 46.7346ZM1306.74 16.16V47H1307.74V16.16H1306.74ZM1307.24 46.5H1300.58V47.5H1307.24V46.5ZM1301.08 47V5H1300.08V47H1301.08ZM1341.03 5V4.5H1340.53V5H1341.03ZM1368.45 5H1368.95V4.5H1368.45V5ZM1368.45 11.12V11.62H1368.95V11.12H1368.45ZM1348.05 11.12V10.62H1347.55V11.12H1348.05ZM1348.05 21.68H1347.55V22.18H1348.05V21.68ZM1364.49 21.68H1364.99V21.18H1364.49V21.68ZM1364.49 27.8V28.3H1364.99V27.8H1364.49ZM1348.05 27.8V27.3H1347.55V27.8H1348.05ZM1348.05 40.82H1347.55V41.32H1348.05V40.82ZM1369.11 40.82H1369.61V40.32H1369.11V40.82ZM1369.11 47V47.5H1369.61V47H1369.11ZM1341.03 47H1340.53V47.5H1341.03V47ZM1341.03 5.5H1368.45V4.5H1341.03V5.5ZM1367.95 5V11.12H1368.95V5H1367.95ZM1368.45 10.62H1348.05V11.62H1368.45V10.62ZM1347.55 11.12V21.68H1348.55V11.12H1347.55ZM1348.05 22.18H1364.49V21.18H1348.05V22.18ZM1363.99 21.68V27.8H1364.99V21.68H1363.99ZM1364.49 27.3H1348.05V28.3H1364.49V27.3ZM1347.55 27.8V40.82H1348.55V27.8H1347.55ZM1348.05 41.32H1369.11V40.32H1348.05V41.32ZM1368.61 40.82V47H1369.61V40.82H1368.61ZM1369.11 46.5H1341.03V47.5H1369.11V46.5ZM1341.53 47V5H1340.53V47H1341.53ZM1393.59 45.8L1393.37 46.2503L1393.59 45.8ZM1387.83 41.18L1387.43 41.4775L1387.44 41.4864L1387.83 41.18ZM1385.01 34.4L1384.86 33.9222L1384.45 34.05L1384.52 34.4784L1385.01 34.4ZM1391.43 32.42L1391.93 32.3534L1391.85 31.7682L1391.28 31.9422L1391.43 32.42ZM1394.73 38.9L1394.4 39.2733V39.2733L1394.73 38.9ZM1407.27 39.74L1406.98 39.3324L1406.98 39.3361L1407.27 39.74ZM1408.23 32L1407.87 32.3453L1407.88 32.3536L1408.23 32ZM1405.05 29.9L1404.85 30.3582L1404.86 30.3632L1405.05 29.9ZM1399.83 28.1L1399.69 28.5795L1399.69 28.5801L1399.83 28.1ZM1392.93 25.64L1392.72 26.0952L1392.93 25.64ZM1388.43 22.1L1388.04 22.4063L1388.04 22.4111L1388.43 22.1ZM1388.43 9.98L1388.03 9.68149L1388.03 9.68307L1388.43 9.98ZM1393.59 5.96L1393.39 5.50172L1393.39 5.50309L1393.59 5.96ZM1408.11 5.84L1408.3 5.37695L1408.11 5.84ZM1413.45 9.56L1413.07 9.88937L1413.08 9.89914L1413.45 9.56ZM1416.21 15.02L1416.4 15.4827L1416.78 15.3276L1416.7 14.9256L1416.21 15.02ZM1409.91 17.6L1409.42 17.6998L1409.54 18.2916L1410.1 18.0627L1409.91 17.6ZM1406.85 12.5L1406.54 12.8914L1406.54 12.8952L1406.85 12.5ZM1395.57 12.02L1395.29 11.6098L1395.28 11.614L1395.57 12.02ZM1394.73 18.5L1394.38 18.8536L1394.39 18.8634L1394.4 18.8726L1394.73 18.5ZM1397.55 20.18L1397.37 20.6454L1397.38 20.6492L1397.39 20.6527L1397.55 20.18ZM1402.23 21.56L1402.36 21.0769L1402.36 21.0767L1402.23 21.56ZM1409.61 24.02L1409.41 24.4781L1409.61 24.02ZM1414.59 28.04L1414.19 28.3428L1414.2 28.347L1414.59 28.04ZM1414.77 41.66L1414.36 41.3745L1414.77 41.66ZM1409.31 45.98L1409.51 46.4404L1409.51 46.4375L1409.31 45.98ZM1401.09 46.98C1398.48 46.98 1396.06 46.4357 1393.81 45.3497L1393.37 46.2503C1395.76 47.4043 1398.34 47.98 1401.09 47.98V46.98ZM1393.81 45.3497C1391.56 44.262 1389.7 42.7702 1388.23 40.8736L1387.44 41.4864C1389.01 43.5098 1390.99 45.098 1393.37 46.2503L1393.81 45.3497ZM1388.23 40.8826C1386.8 38.9488 1385.89 36.7644 1385.51 34.3216L1384.52 34.4784C1384.93 37.0756 1385.9 39.4112 1387.43 41.4774L1388.23 40.8826ZM1385.16 34.8778L1391.58 32.8978L1391.28 31.9422L1384.86 33.9222L1385.16 34.8778ZM1390.94 32.4866C1391.31 35.2726 1392.46 37.5458 1394.4 39.2733L1395.06 38.5267C1393.32 36.9742 1392.27 34.9274 1391.93 32.3534L1390.94 32.4866ZM1394.4 39.2733C1396.33 40.9983 1398.65 41.86 1401.33 41.86V40.86C1398.89 40.86 1396.81 40.0817 1395.06 38.5267L1394.4 39.2733ZM1401.33 41.86C1403.88 41.86 1405.97 41.3051 1407.57 40.1439L1406.98 39.3361C1405.61 40.3349 1403.74 40.86 1401.33 40.86V41.86ZM1407.56 40.1476C1409.21 38.9778 1410.05 37.3887 1410.05 35.42H1409.05C1409.05 37.0513 1408.38 38.3422 1406.98 39.3324L1407.56 40.1476ZM1410.05 35.42C1410.05 33.9055 1409.57 32.6323 1408.58 31.6464L1407.88 32.3536C1408.65 33.1277 1409.05 34.1345 1409.05 35.42H1410.05ZM1408.59 31.6548C1407.7 30.7171 1406.58 29.9798 1405.24 29.4368L1404.86 30.3632C1406.09 30.8602 1407.08 31.5229 1407.87 32.3452L1408.59 31.6548ZM1405.25 29.4419C1403.94 28.8696 1402.18 28.2626 1399.97 27.6199L1399.69 28.5801C1401.88 29.2174 1403.6 29.8104 1404.85 30.3581L1405.25 29.4419ZM1399.97 27.6205C1397.14 26.784 1394.87 25.9716 1393.14 25.1848L1392.72 26.0952C1394.51 26.9084 1396.84 27.736 1399.69 28.5795L1399.97 27.6205ZM1393.14 25.1848C1391.45 24.4186 1390.01 23.2889 1388.82 21.7889L1388.04 22.4111C1389.33 24.0311 1390.89 25.2614 1392.72 26.0952L1393.14 25.1848ZM1388.83 21.7937C1387.67 20.3036 1387.07 18.321 1387.07 15.8H1386.07C1386.07 18.479 1386.71 20.6964 1388.04 22.4063L1388.83 21.7937ZM1387.07 15.8C1387.07 13.7008 1387.66 11.8661 1388.83 10.2769L1388.03 9.68307C1386.72 11.4538 1386.07 13.4992 1386.07 15.8H1387.07ZM1388.83 10.2785C1390.06 8.63434 1391.7 7.34567 1393.79 6.4169L1393.39 5.50309C1391.16 6.49433 1389.37 7.88566 1388.03 9.68149L1388.83 10.2785ZM1393.79 6.41827C1395.92 5.48923 1398.31 5.02 1400.97 5.02V4.02C1398.19 4.02 1395.66 4.51077 1393.39 5.50173L1393.79 6.41827ZM1400.97 5.02C1403.51 5.02 1405.83 5.4501 1407.92 6.30304L1408.3 5.37695C1406.07 4.4699 1403.63 4.02 1400.97 4.02V5.02ZM1407.92 6.30304C1410.02 7.15656 1411.73 8.35337 1413.07 9.88925L1413.83 9.23075C1412.37 7.56663 1410.52 6.28343 1408.3 5.37695L1407.92 6.30304ZM1413.08 9.89914C1414.46 11.3908 1415.34 13.1261 1415.72 15.1144L1416.7 14.9256C1416.28 12.7539 1415.32 10.8492 1413.82 9.22086L1413.08 9.89914ZM1416.02 14.5573L1409.72 17.1373L1410.1 18.0627L1416.4 15.4827L1416.02 14.5573ZM1410.4 17.5002C1409.94 15.2342 1408.86 13.4248 1407.16 12.1048L1406.54 12.8952C1408.04 14.0552 1409 15.6458 1409.42 17.6998L1410.4 17.5002ZM1407.16 12.1086C1405.5 10.7859 1403.42 10.14 1400.97 10.14V11.14C1403.24 11.14 1405.08 11.7341 1406.54 12.8914L1407.16 12.1086ZM1400.97 10.14C1398.63 10.14 1396.72 10.6116 1395.29 11.6098L1395.86 12.4302C1397.06 11.5884 1398.75 11.14 1400.97 11.14V10.14ZM1395.28 11.614C1393.87 12.6296 1393.15 14.0419 1393.15 15.8H1394.15C1394.15 14.3581 1394.72 13.2504 1395.86 12.426L1395.28 11.614ZM1393.15 15.8C1393.15 17.0037 1393.56 18.0337 1394.38 18.8536L1395.08 18.1464C1394.46 17.5263 1394.15 16.7563 1394.15 15.8H1393.15ZM1394.4 18.8726C1395.21 19.5987 1396.2 20.1875 1397.37 20.6454L1397.73 19.7146C1396.66 19.2925 1395.77 18.7613 1395.06 18.1274L1394.4 18.8726ZM1397.39 20.6527C1398.56 21.0583 1400.14 21.5219 1402.1 22.0433L1402.36 21.0767C1400.4 20.5581 1398.86 20.1017 1397.71 19.7073L1397.39 20.6527ZM1402.1 22.0431C1405.09 22.8394 1407.52 23.6518 1409.41 24.4781L1409.81 23.5619C1407.86 22.7082 1405.37 21.8806 1402.36 21.0769L1402.1 22.0431ZM1409.41 24.4781C1411.24 25.2805 1412.84 26.5633 1414.19 28.3428L1414.99 27.7372C1413.54 25.8367 1411.82 24.4395 1409.81 23.5619L1409.41 24.4781ZM1414.2 28.347C1415.51 30.0339 1416.19 32.3342 1416.19 35.3H1417.19C1417.19 32.1858 1416.47 29.6461 1414.99 27.733L1414.2 28.347ZM1416.19 35.3C1416.19 37.6055 1415.58 39.6243 1414.36 41.3745L1415.18 41.9455C1416.52 40.0157 1417.19 37.7945 1417.19 35.3H1416.19ZM1414.36 41.3745C1413.14 43.1282 1411.4 44.5138 1409.11 45.5225L1409.51 46.4375C1411.94 45.3662 1413.84 43.8718 1415.18 41.9455L1414.36 41.3745ZM1409.12 45.5196C1406.83 46.4885 1404.16 46.98 1401.09 46.98V47.98C1404.26 47.98 1407.07 47.4715 1409.51 46.4404L1409.12 45.5196ZM1455.55 5H1456.05V4.5H1455.55V5ZM1455.55 47V47.5H1456.05V47H1455.55ZM1448.47 47H1447.97V47.5H1448.47V47ZM1448.47 28.16H1448.97V27.66H1448.47V28.16ZM1428.67 28.16V27.66H1428.17V28.16H1428.67ZM1428.67 47V47.5H1429.17V47H1428.67ZM1421.65 47H1421.15V47.5H1421.65V47ZM1421.65 5V4.5H1421.15V5H1421.65ZM1428.67 5H1429.17V4.5H1428.67V5ZM1428.67 21.98H1428.17V22.48H1428.67V21.98ZM1448.47 21.98V22.48H1448.97V21.98H1448.47ZM1448.47 5V4.5H1447.97V5H1448.47ZM1455.05 5V47H1456.05V5H1455.05ZM1455.55 46.5H1448.47V47.5H1455.55V46.5ZM1448.97 47V28.16H1447.97V47H1448.97ZM1448.47 27.66H1428.67V28.66H1448.47V27.66ZM1428.17 28.16V47H1429.17V28.16H1428.17ZM1428.67 46.5H1421.65V47.5H1428.67V46.5ZM1422.15 47V5H1421.15V47H1422.15ZM1421.65 5.5H1428.67V4.5H1421.65V5.5ZM1428.17 5V21.98H1429.17V5H1428.17ZM1428.67 22.48H1448.47V21.48H1428.67V22.48ZM1448.97 21.98V5H1447.97V21.98H1448.97ZM1448.47 5.5H1455.55V4.5H1448.47V5.5ZM1470.97 44.72L1470.72 45.1497L1470.72 45.1535L1470.97 44.72ZM1463.47 37.04L1463.03 37.2806L1463.04 37.2869L1463.47 37.04ZM1463.47 15.02L1463.03 14.7754L1463.03 14.7772L1463.47 15.02ZM1470.97 7.34L1471.22 7.77209L1471.22 7.7711L1470.97 7.34ZM1492.51 7.34L1492.26 7.76975L1492.26 7.77345L1492.51 7.34ZM1500.01 15.02L1499.57 15.2606L1499.58 15.2669L1500.01 15.02ZM1500.01 37.04L1499.57 36.7954L1499.57 36.7972L1500.01 37.04ZM1492.51 44.72L1492.76 45.1521L1492.76 45.1511L1492.51 44.72ZM1474.57 39.32L1474.3 39.7422L1474.31 39.7444L1474.57 39.32ZM1488.91 39.32L1488.65 38.8955L1488.64 38.8978L1488.91 39.32ZM1493.89 33.86L1494.33 34.0897L1493.89 33.86ZM1493.89 18.14L1493.45 18.3666L1493.45 18.3697L1493.89 18.14ZM1488.91 12.62L1488.64 13.0422L1488.65 13.0444L1488.91 12.62ZM1474.57 12.62L1474.31 12.1955L1474.3 12.1978L1474.57 12.62ZM1469.65 18.14L1470.09 18.3697L1470.1 18.3666L1469.65 18.14ZM1481.77 46.98C1477.85 46.98 1474.34 46.0793 1471.22 44.2865L1470.72 45.1535C1474 47.0407 1477.69 47.98 1481.77 47.98V46.98ZM1471.23 44.2903C1468.14 42.4553 1465.7 39.9587 1463.91 36.7931L1463.04 37.2869C1464.92 40.6013 1467.48 43.2247 1470.72 45.1497L1471.23 44.2903ZM1463.91 36.7994C1462.15 33.5997 1461.27 30.0037 1461.27 26H1460.27C1460.27 30.1563 1461.19 33.9203 1463.03 37.2805L1463.91 36.7994ZM1461.27 26C1461.27 21.9962 1462.15 18.4212 1463.91 15.2628L1463.03 14.7772C1461.19 18.0988 1460.27 21.8438 1460.27 26H1461.27ZM1463.91 15.2646C1465.7 12.0601 1468.14 9.56586 1471.22 7.77209L1470.72 6.90791C1467.48 8.79414 1464.92 11.4199 1463.03 14.7754L1463.91 15.2646ZM1471.22 7.7711C1474.34 5.93971 1477.85 5.02 1481.77 5.02V4.02C1477.69 4.02 1474 4.98029 1470.72 6.90889L1471.22 7.7711ZM1481.77 5.02C1485.69 5.02 1489.18 5.93972 1492.26 7.7697L1492.77 6.9103C1489.52 4.98028 1485.85 4.02 1481.77 4.02V5.02ZM1492.26 7.77345C1495.38 9.56707 1497.82 12.0598 1499.57 15.2605L1500.45 14.7794C1498.61 11.4202 1496.04 8.79293 1492.76 6.90655L1492.26 7.77345ZM1499.58 15.2669C1501.37 18.4246 1502.27 21.9981 1502.27 26H1503.27C1503.27 21.8419 1502.33 18.0954 1500.45 14.7731L1499.58 15.2669ZM1502.27 26C1502.27 30.0018 1501.37 33.5964 1499.57 36.7954L1500.45 37.2846C1502.33 33.9236 1503.27 30.1582 1503.27 26H1502.27ZM1499.57 36.7972C1497.82 39.959 1495.38 42.4541 1492.26 44.2889L1492.76 45.1511C1496.04 43.2259 1498.6 40.601 1500.45 37.2828L1499.57 36.7972ZM1492.26 44.2879C1489.18 46.0793 1485.69 46.98 1481.77 46.98V47.98C1485.85 47.98 1489.52 47.0407 1492.76 45.1521L1492.26 44.2879ZM1467.35 26C1467.35 28.9904 1467.97 31.6907 1469.21 34.0897L1470.09 33.6303C1468.94 31.3893 1468.35 28.8496 1468.35 26H1467.35ZM1469.21 34.0897C1470.44 36.4834 1472.14 38.3719 1474.3 39.7422L1474.84 38.8978C1472.84 37.6281 1471.26 35.8766 1470.09 33.6303L1469.21 34.0897ZM1474.31 39.7444C1476.51 41.1175 1479 41.8 1481.77 41.8V40.8C1479.18 40.8 1476.87 40.1625 1474.84 38.8955L1474.31 39.7444ZM1481.77 41.8C1484.54 41.8 1487.01 41.1175 1489.18 39.7422L1488.64 38.8978C1486.65 40.1625 1484.36 40.8 1481.77 40.8V41.8ZM1489.18 39.7444C1491.38 38.3747 1493.1 36.4858 1494.33 34.0897L1493.45 33.6303C1492.29 35.8742 1490.69 37.6253 1488.65 38.8955L1489.18 39.7444ZM1494.33 34.0897C1495.58 31.6907 1496.19 28.9904 1496.19 26H1495.19C1495.19 28.8496 1494.61 31.3893 1493.45 33.6303L1494.33 34.0897ZM1496.19 26C1496.19 23.0096 1495.58 20.3093 1494.33 17.9103L1493.45 18.3697C1494.61 20.6107 1495.19 23.1504 1495.19 26H1496.19ZM1494.34 17.9134C1493.1 15.4772 1491.38 13.5667 1489.18 12.1956L1488.65 13.0444C1490.68 14.3133 1492.28 16.0828 1493.45 18.3666L1494.34 17.9134ZM1489.18 12.1978C1487.01 10.8225 1484.54 10.14 1481.77 10.14V11.14C1484.36 11.14 1486.65 11.7775 1488.64 13.0422L1489.18 12.1978ZM1481.77 10.14C1479 10.14 1476.51 10.8225 1474.31 12.1956L1474.84 13.0444C1476.87 11.7775 1479.18 11.14 1481.77 11.14V10.14ZM1474.3 12.1978C1472.14 13.5695 1470.44 15.4796 1469.21 17.9134L1470.1 18.3666C1471.26 16.0804 1472.84 14.3105 1474.84 13.0422L1474.3 12.1978ZM1469.21 17.9103C1467.97 20.3093 1467.35 23.0096 1467.35 26H1468.35C1468.35 23.1504 1468.94 20.6107 1470.09 18.3697L1469.21 17.9103ZM1508 5V4.5H1507.5V5H1508ZM1531.82 6.56L1531.6 7.00727L1531.61 7.01062L1531.82 6.56ZM1536.62 10.94L1536.19 11.1919L1536.19 11.1959L1536.62 10.94ZM1536.62 24.2L1537.05 24.4559L1537.05 24.4519L1536.62 24.2ZM1531.82 28.58L1532.04 29.0307L1532.05 29.0272L1531.82 28.58ZM1515.08 30.08V29.58H1514.58V30.08H1515.08ZM1515.08 47V47.5H1515.58V47H1515.08ZM1508 47H1507.5V47.5H1508V47ZM1529.24 22.28L1529.58 22.6511L1529.58 22.6505L1529.24 22.28ZM1529.24 12.86L1528.9 13.2251L1528.91 13.2308L1528.91 13.2363L1529.24 12.86ZM1515.08 11.12V10.62H1514.58V11.12H1515.08ZM1515.08 23.96H1514.58V24.46H1515.08V23.96ZM1508 5.5H1524.56V4.5H1508V5.5ZM1524.56 5.5C1527.26 5.5 1529.6 6.00784 1531.6 7.00721L1532.05 6.11278C1529.89 5.03216 1527.39 4.5 1524.56 4.5V5.5ZM1531.61 7.01062C1533.6 7.96912 1535.12 9.3616 1536.19 11.1919L1537.05 10.6881C1535.88 8.6784 1534.21 7.15087 1532.04 6.10937L1531.61 7.01062ZM1536.19 11.1959C1537.26 12.9874 1537.8 15.0962 1537.8 17.54H1538.8C1538.8 14.9438 1538.23 12.6526 1537.05 10.6841L1536.19 11.1959ZM1537.8 17.54C1537.8 19.9835 1537.26 22.1143 1536.19 23.9481L1537.05 24.4519C1538.23 22.4457 1538.8 20.1365 1538.8 17.54H1537.8ZM1536.19 23.9441C1535.13 25.7367 1533.6 27.1327 1531.6 28.1328L1532.05 29.0272C1534.21 27.9473 1535.88 26.4233 1537.05 24.4559L1536.19 23.9441ZM1531.61 28.1294C1529.61 29.0911 1527.26 29.58 1524.56 29.58V30.58C1527.38 30.58 1529.88 30.0689 1532.04 29.0306L1531.61 28.1294ZM1524.56 29.58H1515.08V30.58H1524.56V29.58ZM1514.58 30.08V47H1515.58V30.08H1514.58ZM1515.08 46.5H1508V47.5H1515.08V46.5ZM1508.5 47V5H1507.5V47H1508.5ZM1524.08 24.46C1526.37 24.46 1528.22 23.8775 1529.58 22.651L1528.91 21.9089C1527.79 22.9225 1526.2 23.46 1524.08 23.46V24.46ZM1529.58 22.6505C1530.98 21.3804 1531.66 19.6567 1531.66 17.54H1530.66C1530.66 19.4233 1530.07 20.8596 1528.91 21.9095L1529.58 22.6505ZM1531.66 17.54C1531.66 15.4237 1530.98 13.7156 1529.57 12.4837L1528.91 13.2363C1530.07 14.2444 1530.66 15.6563 1530.66 17.54H1531.66ZM1529.58 12.4949C1528.23 11.2249 1526.37 10.62 1524.08 10.62V11.62C1526.19 11.62 1527.78 12.1751 1528.9 13.2251L1529.58 12.4949ZM1524.08 10.62H1515.08V11.62H1524.08V10.62ZM1514.58 11.12V23.96H1515.58V11.12H1514.58ZM1515.08 24.46H1524.08V23.46H1515.08V24.46ZM1542.54 5V4.5H1542.04V5H1542.54ZM1566.35 6.56L1566.13 7.00727L1566.14 7.01062L1566.35 6.56ZM1571.15 10.94L1570.72 11.1919L1570.73 11.1959L1571.15 10.94ZM1571.15 24.2L1571.58 24.4559L1571.59 24.4519L1571.15 24.2ZM1566.35 28.58L1566.57 29.0307L1566.58 29.0272L1566.35 28.58ZM1549.61 30.08V29.58H1549.11V30.08H1549.61ZM1549.61 47V47.5H1550.11V47H1549.61ZM1542.54 47H1542.04V47.5H1542.54V47ZM1563.77 22.28L1564.11 22.6511L1564.11 22.6505L1563.77 22.28ZM1563.77 12.86L1563.43 13.2251L1563.44 13.2308L1563.45 13.2363L1563.77 12.86ZM1549.61 11.12V10.62H1549.11V11.12H1549.61ZM1549.61 23.96H1549.11V24.46H1549.61V23.96ZM1542.54 5.5H1559.1V4.5H1542.54V5.5ZM1559.1 5.5C1561.79 5.5 1564.13 6.00784 1566.13 7.00721L1566.58 6.11278C1564.42 5.03216 1561.92 4.5 1559.1 4.5V5.5ZM1566.14 7.01062C1568.13 7.96912 1569.66 9.3616 1570.72 11.1919L1571.59 10.6881C1570.41 8.6784 1568.74 7.15087 1566.57 6.10937L1566.14 7.01062ZM1570.73 11.1959C1571.79 12.9874 1572.33 15.0962 1572.33 17.54H1573.33C1573.33 14.9438 1572.76 12.6526 1571.58 10.6841L1570.73 11.1959ZM1572.33 17.54C1572.33 19.9835 1571.79 22.1143 1570.72 23.9481L1571.59 24.4519C1572.76 22.4457 1573.33 20.1365 1573.33 17.54H1572.33ZM1570.73 23.9441C1569.66 25.7367 1568.13 27.1327 1566.13 28.1328L1566.58 29.0272C1568.74 27.9473 1570.41 26.4233 1571.58 24.4559L1570.73 23.9441ZM1566.14 28.1294C1564.14 29.0911 1561.79 29.58 1559.1 29.58V30.58C1561.92 30.58 1564.41 30.0689 1566.57 29.0306L1566.14 28.1294ZM1559.1 29.58H1549.61V30.58H1559.1V29.58ZM1549.11 30.08V47H1550.11V30.08H1549.11ZM1549.61 46.5H1542.54V47.5H1549.61V46.5ZM1543.04 47V5H1542.04V47H1543.04ZM1558.61 24.46C1560.9 24.46 1562.75 23.8775 1564.11 22.651L1563.44 21.9089C1562.32 22.9225 1560.73 23.46 1558.61 23.46V24.46ZM1564.11 22.6505C1565.51 21.3804 1566.19 19.6567 1566.19 17.54H1565.19C1565.19 19.4233 1564.6 20.8596 1563.44 21.9095L1564.11 22.6505ZM1566.19 17.54C1566.19 15.4237 1565.51 13.7156 1564.1 12.4837L1563.45 13.2363C1564.6 14.2444 1565.19 15.6563 1565.19 17.54H1566.19ZM1564.12 12.4949C1562.76 11.2249 1560.9 10.62 1558.61 10.62V11.62C1560.73 11.62 1562.31 12.1751 1563.43 13.2251L1564.12 12.4949ZM1558.61 10.62H1549.61V11.62H1558.61V10.62ZM1549.11 11.12V23.96H1550.11V11.12H1549.11ZM1549.61 24.46H1558.61V23.46H1549.61V24.46ZM1577.07 5V4.5H1576.57V5H1577.07ZM1584.09 5H1584.59V4.5H1584.09V5ZM1584.09 47V47.5H1584.59V47H1584.09ZM1577.07 47H1576.57V47.5H1577.07V47ZM1577.07 5.5H1584.09V4.5H1577.07V5.5ZM1583.59 5V47H1584.59V5H1583.59ZM1584.09 46.5H1577.07V47.5H1584.09V46.5ZM1577.57 47V5H1576.57V47H1577.57ZM1591.15 5V4.5H1590.65V5H1591.15ZM1598.53 5L1598.95 4.73552L1598.81 4.5H1598.53V5ZM1617.79 35.9L1617.37 36.1645L1618.29 37.6474V35.9H1617.79ZM1617.79 5V4.5H1617.29V5H1617.79ZM1624.51 5H1625.01V4.5H1624.51V5ZM1624.51 47V47.5H1625.01V47H1624.51ZM1617.13 47L1616.71 47.2654L1616.85 47.5H1617.13V47ZM1597.81 16.16L1598.23 15.8946L1597.31 14.42V16.16H1597.81ZM1597.81 47V47.5H1598.31V47H1597.81ZM1591.15 47H1590.65V47.5H1591.15V47ZM1591.15 5.5H1598.53V4.5H1591.15V5.5ZM1598.11 5.26448L1617.37 36.1645L1618.21 35.6355L1598.95 4.73552L1598.11 5.26448ZM1618.29 35.9V5H1617.29V35.9H1618.29ZM1617.79 5.5H1624.51V4.5H1617.79V5.5ZM1624.01 5V47H1625.01V5H1624.01ZM1624.51 46.5H1617.13V47.5H1624.51V46.5ZM1617.55 46.7346L1598.23 15.8946L1597.39 16.4254L1616.71 47.2654L1617.55 46.7346ZM1597.31 16.16V47H1598.31V16.16H1597.31ZM1597.81 46.5H1591.15V47.5H1597.81V46.5ZM1591.65 47V5H1590.65V47H1591.65ZM1640 45.02L1639.77 45.4613L1639.77 45.4626L1640 45.02ZM1632.56 37.76L1632.13 38.0109L1632.13 38.0133L1632.56 37.76ZM1632.62 14.3L1633.05 14.5573L1633.05 14.5549L1632.62 14.3ZM1640.24 6.98L1640.01 6.5362L1640.24 6.98ZM1668.98 18.2L1669.08 18.6896L1669.56 18.5901L1669.47 18.1073L1668.98 18.2ZM1662.02 19.64L1661.53 19.7394L1661.63 20.2313L1662.12 20.1296L1662.02 19.64ZM1658.06 13.1L1657.75 13.4898L1657.76 13.4963L1658.06 13.1ZM1643.36 12.44L1643.11 12.0069L1643.11 12.009L1643.36 12.44ZM1638.56 17.72L1638.11 17.4964L1638.11 17.5026L1638.56 17.72ZM1638.56 34.28L1638.11 34.4974L1638.11 34.5067L1638.56 34.28ZM1643.36 39.5L1643.11 39.931L1643.36 39.5ZM1658.72 38.42L1659.06 38.7906L1659.06 38.7903L1658.72 38.42ZM1662.26 30.68L1662.76 30.7112L1662.79 30.18H1662.26V30.68ZM1648.82 30.68H1648.32V31.18H1648.82V30.68ZM1648.82 24.86V24.36H1648.32V24.86H1648.82ZM1668.8 24.86H1669.3V24.36H1668.8V24.86ZM1668.8 47V47.5H1669.3V47H1668.8ZM1662.44 47H1661.94V47.5H1662.44V47ZM1662.44 41.36H1662.94L1662 41.1287L1662.44 41.36ZM1657.64 45.8L1657.42 45.3528L1657.64 45.8ZM1650.14 46.98C1646.58 46.98 1643.28 46.1784 1640.23 44.5774L1639.77 45.4626C1642.96 47.1416 1646.42 47.98 1650.14 47.98V46.98ZM1640.24 44.5787C1637.24 42.9848 1634.83 40.6324 1632.99 37.5067L1632.13 38.0133C1634.05 41.2876 1636.6 43.7752 1639.77 45.4613L1640.24 44.5787ZM1632.99 37.5091C1631.17 34.3609 1630.24 30.5318 1630.24 26H1629.24C1629.24 30.6682 1630.19 34.6791 1632.13 38.0109L1632.99 37.5091ZM1630.24 26C1630.24 21.4696 1631.19 17.6633 1633.05 14.5572L1632.19 14.0428C1630.22 17.3367 1629.24 21.3304 1629.24 26H1630.24ZM1633.05 14.5549C1634.93 11.3904 1637.4 9.01821 1640.47 7.42379L1640.01 6.5362C1636.76 8.22179 1634.15 10.7296 1632.19 14.0451L1633.05 14.5549ZM1640.47 7.42379C1643.56 5.82199 1646.9 5.02 1650.5 5.02V4.02C1646.74 4.02 1643.24 4.85801 1640.01 6.5362L1640.47 7.42379ZM1650.5 5.02C1655.29 5.02 1659.29 6.21699 1662.5 8.58289L1663.1 7.77711C1659.68 5.26301 1655.47 4.02 1650.5 4.02V5.02ZM1662.5 8.58289C1665.72 10.9441 1667.71 14.1706 1668.49 18.2927L1669.47 18.1073C1668.65 13.7494 1666.52 10.2959 1663.1 7.77711L1662.5 8.58289ZM1668.88 17.7104L1661.92 19.1504L1662.12 20.1296L1669.08 18.6896L1668.88 17.7104ZM1662.51 19.5406C1661.93 16.6719 1660.55 14.3827 1658.37 12.7037L1657.76 13.4963C1659.73 15.0173 1660.99 17.0881 1661.53 19.7394L1662.51 19.5406ZM1658.37 12.7103C1656.23 10.9877 1653.58 10.14 1650.44 10.14V11.14C1653.39 11.14 1655.81 11.9323 1657.75 13.4897L1658.37 12.7103ZM1650.44 10.14C1647.72 10.14 1645.27 10.7588 1643.11 12.0069L1643.61 12.8731C1645.61 11.7212 1647.88 11.14 1650.44 11.14V10.14ZM1643.11 12.009C1640.98 13.2627 1639.31 15.0986 1638.11 17.4964L1639.01 17.9436C1640.13 15.7014 1641.66 14.0173 1643.61 12.871L1643.11 12.009ZM1638.11 17.5026C1636.95 19.9048 1636.38 22.7425 1636.38 26H1637.38C1637.38 22.8575 1637.93 20.1752 1639.01 17.9374L1638.11 17.5026ZM1636.38 26C1636.38 29.2575 1636.95 32.0952 1638.11 34.4974L1639.01 34.0626C1637.93 31.8248 1637.38 29.1425 1637.38 26H1636.38ZM1638.11 34.5067C1639.31 36.8646 1640.98 38.6787 1643.11 39.931L1643.61 39.069C1641.66 37.9213 1640.13 36.2554 1639.01 34.0533L1638.11 34.5067ZM1643.11 39.931C1645.23 41.1812 1647.66 41.8 1650.38 41.8V40.8C1647.82 40.8 1645.57 40.2188 1643.61 39.069L1643.11 39.931ZM1650.38 41.8C1653.92 41.8 1656.83 40.8101 1659.06 38.7906L1658.38 38.0494C1656.37 39.8699 1653.72 40.8 1650.38 40.8V41.8ZM1659.06 38.7903C1661.32 36.7337 1662.55 34.027 1662.76 30.7112L1661.76 30.6488C1661.57 33.733 1660.44 36.1863 1658.38 38.0497L1659.06 38.7903ZM1662.26 30.18H1648.82V31.18H1662.26V30.18ZM1649.32 30.68V24.86H1648.32V30.68H1649.32ZM1648.82 25.36H1668.8V24.36H1648.82V25.36ZM1668.3 24.86V47H1669.3V24.86H1668.3ZM1668.8 46.5H1662.44V47.5H1668.8V46.5ZM1662.94 47V41.36H1661.94V47H1662.94ZM1662 41.1287C1661.1 42.8575 1659.58 44.2699 1657.42 45.3528L1657.86 46.2472C1660.18 45.0901 1661.87 43.5425 1662.88 41.5913L1662 41.1287ZM1657.42 45.3528C1655.25 46.4346 1652.83 46.98 1650.14 46.98V47.98C1652.97 47.98 1655.55 47.4054 1657.86 46.2472L1657.42 45.3528Z" fill="#63768D"/>
</svg>
